<?xml version="1.0" standalone="no"?>
<!DOCTYPE svg PUBLIC "-//W3C//DTD SVG 1.1//EN" "http://www.w3.org/Graphics/SVG/1.1/DTD/svg11.dtd" >
<svg>
<metadata>
Created by FontForge 20090622 at Mon Jan 23 02:40:04 2017
 By deploy user
Copyright (c) Laurenz Brunner. www.lineto.com, 2004. All rights reserved.
</metadata>
<defs>
<font id="AkkuratMono" horiz-adv-x="620" >
  <font-face 
    font-family="Akkurat Mono"
    font-weight="400"
    font-stretch="normal"
    units-per-em="1000"
    panose-1="2 0 5 9 8 0 0 2 0 4"
    ascent="800"
    descent="-200"
    x-height="505"
    cap-height="709"
    bbox="-31 -289 683 947"
    underline-thickness="45"
    underline-position="-71"
    unicode-range="U+0020-U+FB02"
  />
<missing-glyph horiz-adv-x="588" 
d="M425 74v549h-262v-549h262zM88 698h412v-698h-412v698z" />
    <glyph glyph-name="fi" unicode="fi" 
d="M424 0v434h-190v-434h-86v434h-95v72h95v68q0 28 10 54t31 49q22 23 55.5 39t80.5 16q48 0 81 -14t55 -35q44 -44 44 -105h-87q0 26 -17 48q-11 14 -29.5 22.5t-46.5 8.5q-26 0 -43.5 -8t-28.5 -21q-19 -22 -19 -60v-62h275v-506h-85z" />
    <glyph glyph-name="fl" unicode="fl" 
d="M414 0v645h-90h-1q-26 0 -43.5 -7.5t-28.5 -19.5q-13 -14 -18.5 -31t-5.5 -35v-46h111v-72h-111v-434h-86v434h-102v72h102v52q0 26 9.5 55t31 53t56 40t85.5 16h1h176v-722h-86z" />
    <glyph glyph-name=".notdef" horiz-adv-x="588" 
d="M425 74v549h-262v-549h262zM88 698h412v-698h-412v698z" />
    <glyph glyph-name=".null" horiz-adv-x="0" 
 />
    <glyph glyph-name="nonmarkingreturn" 
 />
    <glyph glyph-name="space" unicode=" " 
 />
    <glyph glyph-name="exclam" unicode="!" 
d="M240 0v143h140v-143h-140zM340 215h-60l-23 290v204h105v-204z" />
    <glyph glyph-name="quotedbl" unicode="&#x22;" 
d="M252 405h-71l-21 167v137h114v-137zM439 405h-71l-22 167v137h114v-137z" />
    <glyph glyph-name="numbersign" unicode="#" 
d="M231 259h138l24 178h-139zM438 259h122v-67h-133l-25 -191h-69l26 191h-138l-26 -191h-68l26 191h-121v67h131l24 178h-122v68h132l26 190h67l-25 -190h138l26 190h68l-26 -190h122v-68h-132z" />
    <glyph glyph-name="dollar" unicode="$" 
d="M485 193q0 42 -27 73t-90 41l-22 3v-240q32 2 57.5 11.5t45.5 28.5q17 15 26.5 34.5t9.5 48.5zM290 639q-61 -6 -99 -48q-27 -31 -27 -77q0 -24 9 -41.5t23.5 -29.5t33 -19t38.5 -10q5 -1 11 -1.5t11 -1.5v228zM578 195q0 -45 -17 -78t-43 -59q-32 -32 -77 -49t-95 -21
v-75h-56v75q-107 7 -171 67q-34 32 -55 75.5t-21 94.5h93q0 -32 14 -61.5t36 -50.5q20 -19 47 -29t57 -14v249l-31 5q-40 6 -74 20t-59 37.5t-39.5 56t-14.5 74.5q0 40 15.5 76.5t44.5 63.5q65 62 158 69v78h56v-79q43 -4 82 -20.5t69 -45.5q65 -62 68 -152h-93
q-2 26 -11 49t-24 40q-32 38 -91 47v-236q9 -2 18 -3t19 -3q89 -13 142 -64.5t53 -136.5z" />
    <glyph glyph-name="percent" unicode="%" 
d="M524 146q0 38 -25 64t-63 26t-61.5 -26t-23.5 -64t23.5 -65t61.5 -27t63 27t25 65zM593 146q0 -35 -12.5 -64t-34.5 -49.5t-50 -31.5t-60 -11q-31 0 -58.5 11.5t-48 32.5t-32.5 49.5t-12 62.5q0 32 10.5 60t30 49t47.5 33t63 12t63.5 -12t49.5 -32.5t32.5 -48.5t11.5 -61
zM89 152l-34 49l482 353l34 -49zM258 562q0 38 -25 64t-63 26t-61.5 -26t-23.5 -64t23.5 -65t61.5 -27t63 27t25 65zM327 562q0 -35 -12.5 -64t-34.5 -49.5t-50 -31.5t-60 -11q-31 0 -58.5 11.5t-48 32.5t-32.5 49.5t-12 62.5q0 32 10.5 60t30 49t47.5 33.5t63 12.5
t63.5 -12t49.5 -33t32.5 -49t11.5 -61z" />
    <glyph glyph-name="ampersand" unicode="&#x26;" 
d="M211 327q-11 -7 -18.5 -13.5t-18.5 -13.5q-13 -9 -25 -21.5t-20.5 -27.5t-13.5 -31.5t-5 -32.5q0 -30 11.5 -53.5t32.5 -40.5q16 -12 36.5 -19.5t44.5 -7.5q45 0 86 16t67 48zM344 553q0 18 -6.5 35.5t-19 31t-31 21.5t-41.5 8q-19 0 -35.5 -7.5t-29 -20.5t-19.5 -29.5
t-7 -33.5q0 -26 9.5 -48t26.5 -40l16 -18l14 -15.5t12 -13.5l18 11t19 12l21 14q23 15 38 36.5t15 56.5zM504 0l-61 69q-18 -20 -41.5 -35.5t-50.5 -26t-55.5 -15.5t-55.5 -5q-91 0 -150 51q-29 26 -46.5 62.5t-17.5 84.5q0 24 8 49.5t21.5 49t32 43.5t40.5 34q9 6 15.5 12
t15.5 11q-4 5 -10.5 12t-11.5 14q-6 8 -13 16q-23 28 -37.5 58.5t-14.5 72.5q0 30 12 59.5t34.5 53t55 38t74.5 14.5t75 -12.5t56 -35t35 -53t12 -67.5q0 -51 -23.5 -88.5t-65.5 -66.5q-9 -7 -18 -13q-8 -5 -16 -11t-15 -10l147 -166q11 19 16 45.5t7 54.5t2 56v50h142v-73
h-62q0 -24 -3 -51.5t-9 -54t-15.5 -50t-21.5 -41.5l120 -135h-107z" />
    <glyph glyph-name="quotesingle" unicode="'" 
d="M346 405h-71l-22 167v137h114v-137z" />
    <glyph glyph-name="parenleft" unicode="(" 
d="M385 -142q-41 46 -72.5 101.5t-52.5 116t-32 123t-11 123.5t11 123.5t32 123t52.5 116t72.5 101.5l53 -37q-72 -95 -109.5 -199t-37.5 -228t37.5 -228t109.5 -199z" />
    <glyph glyph-name="parenright" unicode=")" 
d="M403 322q0 -61 -11 -123.5t-32 -123t-52.5 -116t-72.5 -101.5l-53 37q72 95 109.5 199t37.5 228t-37.5 228t-109.5 199l53 37q41 -46 72.5 -101.5t52.5 -116t32 -123t11 -123.5z" />
    <glyph glyph-name="asterisk" unicode="*" 
d="M363 471l104 -129l-67 -48l-90 139l-89 -139l-67 50l104 127l-159 41l26 79l153 -60l-8 165h83l-10 -165l154 60l25 -79z" />
    <glyph glyph-name="plus" unicode="+" 
d="M345 268v-263h-70v263h-240v69h240v247h70v-247h241v-69h-241z" />
    <glyph glyph-name="comma" unicode="," 
d="M386 0q0 -69 -26 -117.5t-94 -76.5l-32 58q24 10 39.5 23t24.5 29t12.5 36.5t3.5 47.5h-79v149h151v-149z" />
    <glyph glyph-name="hyphen" unicode="-" 
d="M132 262v79h357v-79h-357z" />
    <glyph glyph-name="period" unicode="." 
d="M236 -1v151h148v-151h-148z" />
    <glyph glyph-name="slash" unicode="/" 
d="M105 -13h-73l478 735h73z" />
    <glyph glyph-name="zero" unicode="0" 
d="M454 348q0 28 -0.5 56t-2.5 55l-258 -319q13 -27 31 -44q15 -14 36.5 -23t49.5 -9t49.5 9t36.5 23q22 21 34 50t17 62t6 69t1 71zM430 550q-13 30 -34 50q-15 14 -36.5 23t-49.5 9t-49.5 -9t-36.5 -23q-22 -21 -34 -50t-17 -62t-6 -69t-1 -71v-59t3 -59zM542 348
q0 -50 -3 -93.5t-12 -81t-25 -69t-42 -58.5q-26 -26 -62 -42.5t-88 -16.5t-88 16.5t-62 42.5q-26 27 -42 58.5t-25 69t-12 81t-3 93.5t3 94t12 81.5t25 69t42 58.5q26 26 62 42t88 16t88 -16t62 -42q26 -27 42 -58.5t25 -69t12 -81.5t3 -94z" />
    <glyph glyph-name="one" unicode="1" 
d="M104 0v78h189v520l-188 -113v91l192 119h82v-617h188v-78h-463z" />
    <glyph glyph-name="two" unicode="2" 
d="M106 0v73l287 347q20 24 29 48.5t9 51.5q0 54 -31 83t-86 29q-23 0 -45 -6.5t-39 -21.5t-27 -39t-10 -59h-88q0 45 15 82.5t42.5 64.5t66 41.5t84.5 14.5q57 0 102 -21.5t71 -58.5q16 -23 24 -49t8 -59q0 -42 -15 -77.5t-44 -70.5l-242 -293h312v-80h-423z" />
    <glyph glyph-name="three" unicode="3" 
d="M526 190q0 -41 -13.5 -77t-39.5 -63q-28 -29 -70 -46t-101 -17q-51 0 -92 17t-70 46q-27 27 -42.5 64t-16.5 85h87q2 -29 10.5 -53.5t25.5 -42.5q16 -17 40.5 -28t57.5 -11q32 0 59 10t45 30q14 16 23.5 37.5t9.5 50.5q0 64 -41 96.5t-105 32.5h-45v79h45q60 0 95.5 31
t35.5 86q0 50 -33 81q-14 14 -36.5 24t-51.5 10t-50.5 -7.5t-37.5 -20.5q-40 -33 -42 -98h-87q1 52 18.5 89.5t48.5 63.5q29 24 68 37t84 13q44 0 83.5 -15t67.5 -41q26 -24 41 -57.5t15 -78.5q0 -24 -8 -48.5t-21.5 -45.5t-32.5 -37.5t-40 -25.5q28 -9 49.5 -27t36.5 -40.5
t22.5 -49t7.5 -53.5z" />
    <glyph glyph-name="four" unicode="4" 
d="M470 148v-148h-86v148h-329v92l274 455h92l-282 -470h245v207h86v-207h94v-77h-94z" />
    <glyph glyph-name="five" unicode="5" 
d="M548 229q0 -110 -59 -175q-27 -30 -68.5 -49t-96.5 -19q-51 0 -93 16t-71 44q-29 29 -46 67.5t-19 86.5h85q2 -33 12.5 -57.5t27.5 -41.5t43.5 -27t59.5 -10q36 0 62 13t42 33q35 44 35 115q0 74 -40 119q-17 18 -41.5 28.5t-57.5 10.5q-35 0 -67.5 -15.5t-50.5 -45.5
h-95l19 373h384v-77h-311l-11 -222q23 34 63.5 48.5t85.5 14.5q46 0 82.5 -15.5t62.5 -41.5q31 -32 47 -76.5t16 -96.5z" />
    <glyph glyph-name="six" unicode="6" 
d="M469 223q0 37 -11 67t-31 52q-16 18 -42 29t-59 11t-58 -12.5t-41 -30.5q-40 -45 -40 -116q0 -37 11.5 -65.5t31.5 -50.5q17 -18 41 -30.5t57 -12.5t57.5 11t41.5 29q42 45 42 119zM555 224q0 -53 -17.5 -95.5t-46.5 -74.5q-28 -30 -70.5 -48.5t-96.5 -18.5
q-59 0 -102.5 26t-69.5 61q-38 52 -50 120.5t-12 143.5t11.5 145t46.5 127q25 39 69.5 69t110.5 30q45 0 83 -15t64 -41q23 -23 38.5 -55.5t17.5 -70.5h-86q-2 26 -12.5 45.5t-26.5 33.5q-31 26 -81 26q-33 0 -56.5 -13.5t-39.5 -31.5q-16 -19 -26.5 -44t-16 -52.5t-8 -57
t-2.5 -56.5q8 18 24.5 33t38.5 25.5t46.5 16.5t49.5 6q48 0 86 -15t63 -39q34 -32 52.5 -78.5t18.5 -101.5z" />
    <glyph glyph-name="seven" unicode="7" 
d="M255 0h-92l292 618h-374v77h466v-77z" />
    <glyph glyph-name="eight" unicode="8" 
d="M452 195q0 28 -10 51.5t-28 41t-44.5 27.5t-59.5 10t-59.5 -10t-44.5 -27.5t-28 -41t-10 -51.5q0 -62 40.5 -97.5t101.5 -35.5t101.5 35.5t40.5 97.5zM438 519q0 27 -10.5 48t-28 36t-40.5 23t-49 8t-49 -8t-40.5 -23t-28 -36t-10.5 -48q0 -24 9 -45.5t25.5 -38t40 -26.5
t53.5 -10t54 10t40.5 26.5t25 38t8.5 45.5zM538 191q0 -40 -12.5 -71.5t-33.5 -56.5q-31 -37 -79 -56.5t-103 -19.5t-103 19.5t-79 56.5q-21 25 -33.5 56.5t-12.5 71.5q0 57 30.5 103t78.5 68q-43 23 -69 64.5t-26 92.5q0 43 15.5 76.5t41.5 57.5q29 27 70 41.5t87 14.5
t87 -14.5t70 -41.5q26 -24 41.5 -57.5t15.5 -76.5q0 -51 -26 -92.5t-69 -64.5q48 -22 78.5 -68t30.5 -103z" />
    <glyph glyph-name="nine" unicode="9" 
d="M445 473q0 72 -42 117q-17 18 -42 30t-58 12t-57.5 -11t-41.5 -29q-42 -45 -42 -119q0 -37 11 -67t31 -52q16 -18 42 -29t59 -11t58.5 12t41.5 30q40 45 40 117zM540 358q0 -75 -11.5 -147.5t-46.5 -129.5q-25 -39 -71.5 -66.5t-112.5 -27.5q-45 0 -83 15t-64 42
q-23 23 -38.5 55t-17.5 70h86q2 -26 12.5 -45t26.5 -33q30 -27 81 -27q33 0 57.5 12t40.5 30q17 19 27.5 44t16.5 53.5t8.5 58.5t2.5 57q-8 -18 -24.5 -33t-38 -25.5t-46 -16.5t-49.5 -6q-48 0 -86 15t-63 39q-34 32 -52.5 78t-18.5 102q0 53 17.5 95.5t46.5 74.5
q28 30 70.5 48.5t96.5 18.5q59 0 103 -25.5t70 -60.5q19 -26 30.5 -57t18 -65t9 -70t2.5 -73z" />
    <glyph glyph-name="colon" unicode=":" 
d="M239 -1v145h142v-145h-142zM239 361v145h142v-145h-142z" />
    <glyph glyph-name="semicolon" unicode=";" 
d="M386 -1q0 -69 -26 -117.5t-94 -76.5l-32 58q24 10 39.5 23t24.5 29t12.5 36.5t3.5 47.5h-75v145h147v-145zM239 361v145h142v-145h-142z" />
    <glyph glyph-name="less" unicode="&#x3c;" 
d="M193 319l281 -275l-58 -59l-330 334l331 336l58 -59z" />
    <glyph glyph-name="equal" unicode="=" 
d="M69 134v79h482v-79h-482zM69 342v79h482v-79h-482z" />
    <glyph glyph-name="greater" unicode="&#x3e;" 
d="M203 -15l-58 59l281 275l-281 277l57 59l331 -336z" />
    <glyph glyph-name="question" unicode="?" 
d="M240 0v134h131v-134h-131zM524 535q0 -60 -28.5 -103t-79.5 -81q-24 -18 -38 -33t-21.5 -30.5t-9.5 -33t-2 -40.5v-22h-82v25q0 40 6.5 68t20 50.5t34.5 42t51 42.5t45.5 49t15.5 67q0 44 -30 76q-17 17 -41 26.5t-51 9.5q-33 0 -58 -11.5t-42 -31t-25.5 -45.5t-8.5 -55
h-90q0 42 14.5 82t42.5 70.5t70 49t97 18.5q42 0 80.5 -13t67 -37.5t45.5 -59.5t17 -80z" />
    <glyph glyph-name="at" unicode="@" 
d="M487 324q0 23 -4.5 46t-16 41t-29.5 29.5t-45 11.5q-25 0 -44 -11t-31 -29t-18 -41t-6 -47q0 -21 5 -43t16.5 -40t29 -29.5t42.5 -11.5t44 10.5t31.5 27.5t19 39.5t6.5 46.5zM502 142l-14 44q-14 -24 -42 -40.5t-72 -16.5q-38 0 -68 15.5t-50.5 42t-31.5 62t-11 75.5
q0 29 8.5 63.5t28 63.5t52.5 48.5t82 19.5q10 0 23 -2t26.5 -6.5t26 -12t19.5 -18.5q0 37 -11.5 68t-32.5 53t-51 34t-68 12q-44 0 -77 -17t-55.5 -45.5t-34 -65.5t-11.5 -78v-227q0 -42 12 -79.5t35.5 -66t59 -45t82.5 -16.5q35 0 66 6t63 21v-71q-27 -16 -60 -23.5
t-68 -7.5q-64 0 -114 22.5t-84.5 60.5t-52.5 88.5t-18 107.5v232q0 54 17.5 104.5t51 89.5t81 62t107.5 23q55 0 100 -18t77 -51t49.5 -78.5t17.5 -101.5v-331h-58z" />
    <glyph glyph-name="A" unicode="A" 
d="M308 618l-110 -351h223zM506 0l-59 183h-275l-58 -183h-91l233 709h108l234 -709h-92z" />
    <glyph glyph-name="B" unicode="B" 
d="M481 204q0 29 -11 52.5t-29.5 39.5t-44 24.5t-55.5 8.5h-150v-247h151q29 0 54.5 6.5t44.5 21t29.5 38t10.5 56.5zM465 519q0 28 -10.5 48.5t-28 34.5t-40.5 21t-49 7h-146v-223h148q56 0 91 26.5t35 85.5zM572 198q0 -43 -14.5 -76.5t-37.5 -58.5q-30 -32 -77.5 -47.5
t-100.5 -15.5h-238v709h238q51 0 95.5 -15t74.5 -47q20 -22 32 -53t12 -68q0 -51 -26 -95t-76 -62q27 -9 49 -26.5t37.5 -40t23.5 -49.5t8 -55z" />
    <glyph glyph-name="C" unicode="C" 
d="M578 226q-2 -52 -23 -96t-55 -76t-79.5 -50t-97.5 -18q-54 0 -99.5 19.5t-83.5 56.5q-30 29 -47.5 63.5t-26 72t-11 77.5t-2.5 79t2.5 79t11 77.5t26 72t47.5 63.5q38 37 83.5 56.5t99.5 19.5q51 0 96.5 -17t79.5 -48t55 -74.5t23 -95.5h-93q-2 29 -13 56t-28 44
q-22 24 -52.5 37.5t-67.5 13.5q-36 0 -65.5 -14t-54.5 -40q-22 -22 -33.5 -50t-17 -58t-6.5 -61.5t-1 -60.5t1 -60.5t6.5 -61.5t17 -57.5t33.5 -50.5q25 -26 54.5 -40t65.5 -14q34 0 63.5 11.5t51 32.5t34.5 49.5t14 62.5h92z" />
    <glyph glyph-name="D" unicode="D" 
d="M481 356q0 34 -1.5 66.5t-6.5 61t-16 53t-29 43.5q-20 21 -52.5 34t-78.5 13h-122v-545h122q48 0 81 14t53 36q18 19 28 44t15 54t6 61t1 65zM572 356q0 -72 -9.5 -136.5t-39.5 -112.5q-30 -49 -86 -78t-140 -29h-211v709h211q84 0 140.5 -30.5t86.5 -79.5
q30 -48 39 -109.5t9 -133.5z" />
    <glyph glyph-name="E" unicode="E" 
d="M100 0v709h469v-82h-380v-216h287v-84h-287v-245h380v-82h-469z" />
    <glyph glyph-name="F" unicode="F" 
d="M199 627v-231h306v-84h-306v-312h-89v709h475v-82h-386z" />
    <glyph glyph-name="G" unicode="G" 
d="M502 0l-15 80q-11 -18 -26.5 -33t-35.5 -27q-25 -15 -54.5 -24.5t-63.5 -9.5q-52 0 -97.5 15.5t-83.5 52.5q-54 53 -73.5 128.5t-19.5 171.5q0 42 4.5 83.5t16 79.5t30 71.5t45.5 60.5q38 38 82.5 55.5t98.5 17.5q118 0 190 -81q25 -28 40 -61t17 -76h-93q-3 53 -41 91
q-21 21 -48 32t-65 11q-36 0 -64.5 -11.5t-54.5 -37.5q-22 -22 -35 -51.5t-20 -61t-9 -63t-2 -59.5q0 -27 1.5 -58.5t7.5 -63.5t18.5 -61.5t34.5 -52.5q27 -28 54 -38t66 -10q38 0 66 11.5t52 35.5q35 35 46 84t11 98h-183v83h265v-382h-62z" />
    <glyph glyph-name="H" unicode="H" 
d="M460 0v327h-301v-327h-90v709h90v-296h301v296h91v-709h-91z" />
    <glyph glyph-name="I" unicode="I" 
d="M108 0v74h157v562h-157v73h404v-73h-157v-562h157v-74h-404z" />
    <glyph glyph-name="J" unicode="J" 
d="M493 200q0 -44 -15.5 -83t-43.5 -68t-67 -45.5t-87 -16.5q-49 0 -91 17.5t-68 44.5q-31 32 -47 72t-16 94h90q0 -73 46 -116q14 -14 37 -21.5t49 -7.5q61 0 92.5 35.5t31.5 94.5v509h89v-509z" />
    <glyph glyph-name="K" unicode="K" 
d="M499 0l-205 357l-120 -137v-220h-90v709h90v-364l319 364h110l-246 -280l247 -429h-105z" />
    <glyph glyph-name="L" unicode="L" 
d="M133 0v709h89v-626h366v-83h-455z" />
    <glyph glyph-name="M" unicode="M" 
d="M473 0v559l-123 -344h-80l-123 342v-557h-86v709h110l141 -396l138 396h109v-709h-86z" />
    <glyph glyph-name="N" unicode="N" 
d="M441 0l-284 570v-570h-87v709h111l283 -573v573h86v-709h-109z" />
    <glyph glyph-name="O" unicode="O" 
d="M489 354q0 28 -0.5 58.5t-5.5 61t-16.5 59t-33.5 50.5q-52 54 -123 54t-123 -54q-22 -22 -33.5 -50.5t-16.5 -59t-5.5 -61t-0.5 -58.5t0.5 -58.5t5.5 -61t16.5 -58.5t33.5 -51q52 -54 123 -54t123 54q22 23 33.5 51t16.5 58.5t5.5 61t0.5 58.5zM581 354q0 -42 -2.5 -82.5
t-11.5 -77.5t-26 -70t-46 -61q-38 -38 -84.5 -57.5t-100.5 -19.5t-100.5 19.5t-84.5 57.5q-29 28 -46 61t-26 70t-11.5 77.5t-2.5 82.5t2.5 82.5t11.5 77.5t26 70t46 61q38 38 84.5 57.5t100.5 19.5t100.5 -19.5t84.5 -57.5q29 -28 46 -61t26 -70t11.5 -77.5t2.5 -82.5z" />
    <glyph glyph-name="P" unicode="P" 
d="M502 495q0 34 -11.5 59t-32.5 41.5t-49 24.5t-61 8h-164v-272h165q72 0 112.5 33.5t40.5 105.5zM594 495q0 -52 -15.5 -90.5t-44.5 -67.5t-76.5 -45.5t-106.5 -16.5h-167v-275h-89v709h255q63 0 111.5 -18t77.5 -49q26 -28 40.5 -64t14.5 -83z" />
    <glyph glyph-name="Q" unicode="Q" 
d="M489 354q0 28 -0.5 58.5t-5.5 61t-16.5 59t-33.5 50.5q-52 54 -123 54t-123 -54q-22 -22 -33.5 -50.5t-16.5 -59t-5.5 -61t-0.5 -58.5t0.5 -58.5t5.5 -61t16.5 -58.5t33.5 -51q52 -54 123 -54q43 0 78 20l-83 107l58 45l82 -104q17 23 26 49.5t13 54.5t4.5 56.5t0.5 54.5
zM581 354q0 -42 -2.5 -81t-11 -75.5t-24.5 -69t-43 -60.5l67 -86l-59 -46l-66 86q-60 -36 -132 -36q-54 0 -100.5 19.5t-84.5 57.5q-29 28 -46 61t-26 70t-11.5 77.5t-2.5 82.5t2.5 82.5t11.5 77.5t26 70t46 61q38 38 84.5 57.5t100.5 19.5t100.5 -19.5t84.5 -57.5
q29 -28 46 -61t26 -70t11.5 -77.5t2.5 -82.5z" />
    <glyph glyph-name="R" unicode="R" 
d="M477 502q0 34 -10.5 57.5t-30 38.5t-45.5 22t-58 7h-154v-249h154q63 0 103.5 28.5t40.5 95.5zM475 0l-134 295h-162v-295h-89v709h243q63 0 107 -16.5t73 -46.5q26 -27 41 -62t15 -82t-14 -80t-40 -60q-16 -17 -37.5 -29.5t-47.5 -20.5l142 -312h-97z" />
    <glyph glyph-name="S" unicode="S" 
d="M571 195q0 -45 -16.5 -78.5t-42.5 -59.5q-37 -36 -90 -53t-110 -17q-128 0 -201 67q-34 32 -54 75.5t-20 94.5h93q0 -32 13.5 -61.5t35.5 -50.5q24 -23 59.5 -33t73.5 -10q41 0 73.5 9t56.5 32q17 15 26.5 34.5t9.5 48.5q0 42 -27 73t-90 41q-29 5 -54.5 8.5t-54.5 8.5
q-40 6 -74 20t-59 37.5t-39.5 56t-14.5 74.5q0 40 15.5 76.5t44.5 63.5q37 35 82 52.5t101 17.5q52 0 99.5 -16t82.5 -50q64 -61 67 -153h-93q-3 51 -34 87q-20 23 -50.5 36.5t-72.5 13.5q-38 0 -69 -12t-54 -38q-14 -16 -20.5 -34t-6.5 -42t9 -41.5t23.5 -29.5t33 -19
t38.5 -10q30 -4 58 -8.5l57 -9.5q89 -13 142 -64.5t53 -136.5z" />
    <glyph glyph-name="T" unicode="T" 
d="M356 626v-626h-91v626h-241v83h572v-83h-240z" />
    <glyph glyph-name="U" unicode="U" 
d="M558 258q0 -60 -15.5 -110t-46.5 -85.5t-77.5 -55.5t-109.5 -20q-62 0 -108.5 20t-77.5 56t-46.5 85.5t-15.5 109.5v451h89v-452q0 -40 8.5 -74.5t27.5 -59t49.5 -38.5t74.5 -14t74 14t49 39t27.5 59t8.5 74v452h89v-451z" />
    <glyph glyph-name="V" unicode="V" 
d="M363 0h-106l-220 709h95l180 -606l177 606h94z" />
    <glyph glyph-name="W" unicode="W" 
d="M535 0h-107l-118 391l-115 -391h-108l-49 709h84l36 -578l112 375h83l112 -374l35 577h84z" />
    <glyph glyph-name="X" unicode="X" 
d="M486 0l-178 288l-176 -288h-99l225 358l-225 351h102l177 -277l175 277h99l-224 -351l225 -358h-101z" />
    <glyph glyph-name="Y" unicode="Y" 
d="M355 288v-288h-90v288l-243 421h100l191 -339l190 339h95z" />
    <glyph glyph-name="Z" unicode="Z" 
d="M70 0v89l390 537h-384v83h485v-90l-391 -536h394v-83h-494z" />
    <glyph glyph-name="bracketleft" unicode="[" 
d="M237 -114v871h228v-62h-159v-747h159v-62h-228z" />
    <glyph glyph-name="backslash" unicode="\" 
d="M513 -13l-478 735h73l478 -735h-73z" />
    <glyph glyph-name="bracketright" unicode="]" 
d="M155 -114v62h158v747h-158v62h228v-871h-228z" />
    <glyph glyph-name="asciicircum" unicode="^" 
d="M425 406l-114 222l-116 -222h-91l169 317h77l167 -317h-92z" />
    <glyph glyph-name="underscore" unicode="_" 
d="M63 -79v79h495v-79h-495z" />
    <glyph glyph-name="grave" unicode="`" 
d="M388 548l-192 117l52 73l176 -141z" />
    <glyph glyph-name="a" unicode="a" 
d="M422 244l-140 -8q-20 -1 -40 -6.5t-36 -17t-26 -28.5t-10 -41q0 -34 23.5 -59t77.5 -25q29 0 57.5 10t48.5 31q23 23 34 52.5t11 61.5v30zM558 5q-14 -7 -27 -9.5t-29 -2.5q-34 0 -54.5 22.5t-20.5 54.5h-2q-23 -38 -68 -60.5t-99 -22.5q-45 0 -78 13t-54.5 34.5t-32 48
t-10.5 53.5q0 28 10 56.5t32 51.5t56.5 38.5t82.5 18.5l158 9v37q0 19 -4.5 38t-21.5 35q-13 12 -33.5 20.5t-51.5 8.5q-35 0 -57 -9t-35 -22q-12 -12 -18.5 -25.5t-8.5 -33.5h-84q1 32 14 58t33 46q26 26 67.5 41t88.5 15q74 0 118 -29t62 -71q15 -34 15 -75v-245
q0 -20 8.5 -27t21.5 -7q6 0 14 2q4 1 8 1v-63z" />
    <glyph glyph-name="b" unicode="b" 
d="M475 253q0 45 -12.5 84.5t-41.5 68.5q-17 17 -39 28t-54 11q-28 0 -49 -9.5t-36 -23.5q-32 -28 -44.5 -69.5t-12.5 -89.5t12.5 -89.5t44.5 -69.5q15 -14 36 -23.5t49 -9.5q32 0 55 9.5t40 26.5q29 29 40.5 70t11.5 86zM562 252q0 -63 -19 -116.5t-55 -90.5
q-25 -26 -62 -42t-84 -16q-21 0 -44 5t-44 15t-38.5 25t-28.5 34l-6 -66h-75v722h85v-275q21 32 62 52t89 20q47 0 82.5 -16t60.5 -39q38 -37 57.5 -91.5t19.5 -120.5z" />
    <glyph glyph-name="c" unicode="c" 
d="M161 457q28 27 69 44.5t89 17.5q45 0 84 -14.5t65 -40.5q26 -25 43 -56t20 -73h-86q-3 26 -14.5 45t-25.5 33q-15 14 -38 23t-48 9q-30 0 -53.5 -10.5t-40.5 -25.5q-32 -29 -43.5 -71.5t-11.5 -84.5t11.5 -84t43.5 -71q17 -15 40.5 -26t53.5 -11q25 0 48 9t38 23
q14 14 26 33t15 45h85q-3 -42 -20.5 -73.5t-43.5 -56.5q-26 -26 -64.5 -40t-83.5 -14q-48 0 -89 17.5t-69 44.5q-42 41 -60 92.5t-18 111.5t18 111.5t60 92.5z" />
    <glyph glyph-name="d" unicode="d" 
d="M438 253q0 48 -12.5 90t-44.5 70q-15 14 -36 23t-49 9q-32 0 -54 -11t-39 -28q-29 -29 -41.5 -68.5t-12.5 -84.5t12 -86t41 -70q17 -17 39.5 -26.5t54.5 -9.5q28 0 49 9t36 23q32 28 44.5 70t12.5 90zM443 0l-6 66q-11 -19 -28.5 -34t-38.5 -25t-44 -15t-44 -5
q-47 0 -84.5 16.5t-62.5 42.5q-36 37 -54.5 90t-18.5 116q0 66 20 119.5t58 90.5q25 23 61 40t83 17q48 0 88 -20t61 -52v275h85v-722h-75z" />
    <glyph glyph-name="e" unicode="e" 
d="M453 296q-1 32 -12 60.5t-31 48.5q-39 41 -97 41q-36 0 -63 -15t-45 -37.5t-27 -48.5t-10 -49h285zM165 226q0 -33 12 -67t39 -60q18 -17 42.5 -27.5t54.5 -10.5q34 0 54 7.5t39 22.5q14 11 25.5 27t16.5 34h82q-9 -39 -29 -70t-48.5 -52t-64 -32t-75.5 -11
q-49 0 -89.5 18.5t-70.5 47.5q-41 40 -58 92t-17 106q0 60 19 112.5t56 90.5q29 29 69.5 47t91.5 18q48 0 88.5 -16.5t67.5 -44.5q36 -37 54.5 -89.5t18.5 -112.5v-30h-378z" />
    <glyph glyph-name="f" unicode="f" 
d="M535 628q-21 11 -55.5 20t-63.5 9q-49 0 -73 -26.5t-24 -65.5v-59h220v-72h-220v-434h-86v434h-167v72h167v59q0 76 46.5 121.5t126.5 45.5q45 0 76 -8t53 -17v-79z" />
    <glyph glyph-name="g" unicode="g" 
d="M486 -75q0 32 -16.5 48.5t-40.5 23.5t-52.5 7.5t-52.5 0.5h-97q-26 -8 -45 -29.5t-19 -50.5q0 -32 21 -53q12 -12 29.5 -19t36.5 -10.5t38.5 -4.5t35.5 -1t35.5 1t38.5 5t36 11t29 19q10 10 16.5 22.5t6.5 29.5zM428 339q0 48 -32 79.5t-86 31.5t-86 -31.5t-32 -79.5
q0 -24 8.5 -44.5t24.5 -36t37.5 -24t47.5 -8.5t47.5 8.5t37.5 24t24.5 36t8.5 44.5zM569 -75q0 -33 -12.5 -58t-30.5 -43t-43 -29.5t-52.5 -18.5t-56 -9.5t-55.5 -2.5q-25 0 -52 2t-52.5 8.5t-49 18t-41.5 29.5q-16 16 -27 37.5t-11 51.5q0 40 21 69.5t51 44.5
q-26 10 -42 33t-16 52q0 34 20 59t49 39q-31 26 -45 60.5t-14 70.5q0 42 13.5 71t35.5 52q26 27 63.5 42t88.5 15q36 0 65.5 -8t52.5 -22q13 34 41 52.5t64 18.5q6 0 12.5 -0.5t12.5 -1.5v-69q-4 1 -9 1h-10q-25 0 -41.5 -13.5t-21.5 -32.5q16 -20 25 -45.5t9 -59.5
q0 -36 -12.5 -66.5t-33.5 -53.5q-25 -27 -64 -44t-90 -17q-26 0 -45 4t-43 12q-14 -5 -28 -17t-16 -30q-1 -16 6 -26t18.5 -15.5t25 -7t25.5 -1.5h111q45 0 90 -11t75 -42q18 -18 28.5 -42.5t10.5 -56.5z" />
    <glyph glyph-name="h" unicode="h" 
d="M441 0v321q0 57 -27.5 89t-87.5 32q-37 0 -66.5 -22t-46.5 -57q-13 -28 -16.5 -64.5t-3.5 -65.5v-233h-86v723h86v-284q23 39 67 59.5t87 20.5q87 0 133.5 -49t46.5 -137v-333h-86z" />
    <glyph glyph-name="i" unicode="i" 
d="M111 0v73h183v361h-163v72h249v-433h184v-73h-453zM272 602v120h121v-120h-121z" />
    <glyph glyph-name="j" unicode="j" 
d="M314 602v120h120v-120h-120zM135 -113q23 -10 52.5 -17.5t56.5 -7.5q50 0 71 27.5t21 68.5v476h-201v72h287v-554q0 -33 -10 -63t-31 -52.5t-52.5 -36t-74.5 -13.5q-41 0 -70 7.5t-49 16.5v76z" />
    <glyph glyph-name="k" unicode="k" 
d="M577 0h-100l-159 244l-103 -107v-137h-85v723h85v-471l242 254h113l-193 -201z" />
    <glyph glyph-name="l" unicode="l" 
d="M104 0v72h178v579h-163v71h249v-650h177v-72h-441z" />
    <glyph glyph-name="m" unicode="m" 
d="M497 0v359q0 34 -11.5 59.5t-49.5 25.5q-16 0 -27 -7t-20 -16q-19 -20 -24.5 -52t-5.5 -70v-299h-80v353q0 40 -14 65.5t-52 25.5q-42 0 -60.5 -38t-18.5 -97v-309h-84v506h69l8 -49q13 25 40.5 43.5t69.5 18.5q20 0 36.5 -6.5t29 -16.5t21 -21.5t12.5 -22.5
q18 30 48 48.5t71 18.5q33 0 57 -11.5t39.5 -31t22.5 -43.5t7 -50v-383h-84z" />
    <glyph glyph-name="n" unicode="n" 
d="M440 0v321q0 56 -26 88.5t-85 32.5q-37 0 -67 -23t-47 -58q-13 -28 -17.5 -64.5t-4.5 -65.5v-231h-86v506h75l7 -76q23 44 68 66.5t90 22.5q87 0 133.5 -49t46.5 -137v-333h-87z" />
    <glyph glyph-name="o" unicode="o" 
d="M461 253q0 42 -12.5 84.5t-44.5 71.5q-17 15 -40.5 25.5t-53.5 10.5t-53.5 -10.5t-40.5 -25.5q-32 -29 -44.5 -71t-12.5 -84t12.5 -85t44.5 -72q17 -15 40.5 -25.5t53.5 -10.5t53.5 10.5t40.5 25.5q32 29 44.5 71.5t12.5 84.5zM548 254q0 -60 -18.5 -112.5t-60.5 -93.5
q-28 -27 -69 -44t-89 -17t-90 17t-70 44q-42 41 -60.5 93t-18.5 112t18.5 112t60.5 93q28 27 70 44t90 17t89 -17t69 -44q42 -41 60.5 -92.5t18.5 -111.5z" />
    <glyph glyph-name="p" unicode="p" 
d="M475 252q0 45 -11.5 85.5t-40.5 69.5q-17 17 -40 27.5t-55 10.5q-28 0 -49 -9.5t-36 -23.5q-32 -28 -44.5 -70t-12.5 -90t12.5 -89.5t44.5 -69.5q15 -14 36 -23t49 -9q32 0 54.5 10t39.5 27q29 29 41 69t12 85zM562 253q0 -66 -19.5 -120.5t-57.5 -91.5
q-25 -23 -60.5 -39t-82.5 -16q-48 0 -89 20t-62 52v-265h-85v713h75l6 -67q11 19 28.5 34t38.5 25t44 15t44 5q47 0 84 -17t62 -43q36 -37 55 -89.5t19 -115.5z" />
    <glyph glyph-name="q" unicode="q" 
d="M438 252q0 48 -12.5 89.5t-44.5 69.5q-15 14 -36 23.5t-49 9.5q-32 0 -54 -11t-39 -28q-29 -29 -41.5 -68.5t-12.5 -84.5t12.5 -84.5t41.5 -68.5q17 -17 39 -28t54 -11q28 0 49 9.5t36 23.5q32 28 44.5 69.5t12.5 89.5zM433 -207v265q-21 -32 -61 -52t-88 -20
q-47 0 -83 17t-61 40q-38 37 -58 90.5t-20 119.5q0 63 19 115.5t55 89.5q25 26 62 43t84 17q21 0 44 -5t44 -15t38.5 -25t28.5 -34l6 67h75v-713h-85z" />
    <glyph glyph-name="r" unicode="r" 
d="M481 335q0 44 -27 74q-13 14 -32.5 23.5t-47.5 9.5q-38 0 -69.5 -25.5t-46.5 -60.5q-12 -29 -17 -64.5t-5 -66.5v-225h-86v506h75l7 -76q24 46 68 67.5t92 21.5q51 0 87 -22t57 -52q18 -26 25 -54.5t7 -55.5h-87z" />
    <glyph glyph-name="s" unicode="s" 
d="M528 147q0 -33 -11 -57.5t-29 -43.5q-29 -30 -75 -44.5t-98 -14.5t-95.5 13t-77.5 46q-23 23 -36.5 54t-13.5 63h85q1 -26 13.5 -45t30.5 -33t43 -19.5t55 -5.5q26 0 52.5 6t46.5 23q11 8 18 21.5t7 30.5q0 25 -17 44.5t-58 25.5l-129 19q-58 9 -93 47q-30 35 -30 87
q0 31 12 55.5t29 41.5q25 26 65.5 42t88.5 16q52 0 96.5 -17t70.5 -51q16 -20 24.5 -43t10.5 -53h-85q-1 20 -10 36t-20 26q-16 14 -38.5 22t-48.5 8q-23 0 -46 -5.5t-40 -19.5q-28 -23 -28 -53q0 -29 17.5 -43.5t49.5 -19.5l137 -21q23 -3 45.5 -13t40.5 -27.5t29.5 -41.5
t11.5 -56z" />
    <glyph glyph-name="t" unicode="t" 
d="M522 25q-28 -16 -61.5 -26t-78.5 -10q-43 0 -73.5 13.5t-50.5 36t-29.5 51.5t-9.5 59v284h-158v73h158v131l85 27v-158h212v-73h-212v-276q0 -41 22.5 -66t67.5 -25q38 0 67 10t61 24v-75z" />
    <glyph glyph-name="u" unicode="u" 
d="M440 0l-7 76q-10 -22 -27.5 -38.5t-38.5 -28t-44.5 -17t-44.5 -5.5q-40 0 -72.5 13t-56 37.5t-36.5 59t-13 76.5v333h86v-321q0 -57 26 -89t86 -32q27 0 51 11.5t41.5 31t28 47t10.5 58.5v294h86v-506h-75z" />
    <glyph glyph-name="v" unicode="v" 
d="M362 0h-101l-200 505h93l161 -421l155 421h89z" />
    <glyph glyph-name="w" unicode="w" 
d="M508 0h-102l-96 285l-97 -285h-101l-69 505h81l52 -403l94 272h80l95 -271l53 402h80z" />
    <glyph glyph-name="x" unicode="x" 
d="M451 0l-143 201l-142 -201h-102l187 258l-186 248h105l142 -190l136 190h102l-184 -248l189 -258h-104z" />
    <glyph glyph-name="y" unicode="y" 
d="M324 -104q-19 -48 -51 -78.5t-89 -30.5q-32 0 -56 6.5t-35 12.5v73l24 -8q11 -3 24 -5t25 -2q27 0 46.5 11t30.5 40l34 85l-221 506h105l163 -402l151 402h97z" />
    <glyph glyph-name="z" unicode="z" 
d="M106 0v75l309 356h-309v74h413v-75l-308 -356h311v-74h-416z" />
    <glyph glyph-name="braceleft" unicode="{" 
d="M433 -119q-44 0 -74 11t-48 33t-26 53.5t-8 72.5v156q0 21 -9.5 34.5t-24 22.5t-32.5 13.5t-35 5.5v72q15 2 33 7.5t33 15t25 23t10 32.5v154q0 43 7 75t24.5 53.5t48 32t76.5 10.5h26v-63h-26q-54 0 -70.5 -25.5t-16.5 -76.5v-161q0 -47 -24.5 -73.5t-69.5 -34.5v-2
q40 -10 67 -36.5t27 -69.5v-161q0 -23 4 -43t14 -35t27 -24t43 -9h26v-63h-27z" />
    <glyph glyph-name="bar" unicode="|" 
d="M271 -114v871h78v-871h-78z" />
    <glyph glyph-name="braceright" unicode="}" 
d="M444 283q-17 -1 -35 -5.5t-32.5 -13t-24 -22.5t-9.5 -35v-156q0 -41 -8 -72.5t-26 -53.5t-48 -33t-74 -11h-27v63h26q26 0 43 9t27 24t14 35t4 43v161q0 43 27 69.5t67 36.5v2q-45 8 -69.5 34.5t-24.5 73.5v161q0 51 -16.5 76.5t-70.5 25.5h-26v63h26q47 0 77 -10.5
t47.5 -32t24.5 -53.5t7 -75v-154q0 -19 10 -32.5t25 -23t33 -15t33 -7.5v-72z" />
    <glyph glyph-name="asciitilde" unicode="~" 
d="M555 311q-24 -24 -43 -39.5t-36 -24t-33.5 -11.5t-34.5 -3q-28 0 -58 10t-59 24l-38.5 17.5t-40.5 8.5q-10 0 -20.5 -1.5t-22 -6.5t-24.5 -14.5t-30 -26.5l-49 56q23 24 42.5 39.5t36.5 24t33.5 11.5t34.5 3q21 0 40.5 -4.5t39.5 -12.5t38.5 -17t37.5 -16q21 -8 39 -8
q10 0 20.5 1t22 6t25 14.5t29.5 26.5z" />
    <glyph glyph-name="Adieresis" unicode="&#xc4;" 
d="M308 618l-110 -351h223zM506 0l-59 183h-275l-58 -183h-91l233 709h107l234 -709h-91zM161 779v102h102v-102h-102zM347 779v102h102v-102h-102z" />
    <glyph glyph-name="Aring" unicode="&#xc5;" 
d="M308 618l-110 -351h223zM369 770q0 25 -16 43.5t-44 18.5t-44 -18.5t-16 -43.5t16 -43t44 -18t44 18t16 43zM506 0l-59 183h-275l-58 -183h-91l220 670q-26 16 -40.5 43t-14.5 57q0 23 8 44t24 37.5t38.5 26.5t50.5 10q29 0 51.5 -10t38 -26.5t24 -37.5t8.5 -44
q0 -30 -14.5 -56.5t-40.5 -43.5l221 -670h-91z" />
    <glyph glyph-name="Ccedilla" unicode="&#xc7;" 
d="M312 -243l-92 42l82 141h82zM578 226q-2 -52 -23 -96t-55 -76t-79.5 -50t-97.5 -18q-54 0 -99.5 19.5t-83.5 56.5q-30 29 -47.5 63.5t-26 72t-11 77.5t-2.5 79t2.5 79t11 77.5t26 72t47.5 63.5q38 37 83.5 56.5t99.5 19.5q51 0 96.5 -17t79.5 -48t55 -74.5t23 -95.5h-93
q-2 29 -13 56t-28 44q-22 24 -52.5 37.5t-67.5 13.5q-36 0 -65.5 -14t-54.5 -40q-22 -22 -33.5 -50t-17 -58t-6.5 -61.5t-1 -60.5t1 -60.5t6.5 -61.5t17 -57.5t33.5 -50.5q25 -26 54.5 -40t65.5 -14q34 0 63.5 11.5t51 32.5t34.5 49.5t14 62.5h92z" />
    <glyph glyph-name="Eacute" unicode="&#xc9;" 
d="M100 0v709h469v-82h-380v-216h287v-84h-287v-245h380v-82h-469zM260 752l-36 48l176 142l52 -73z" />
    <glyph glyph-name="Ntilde" unicode="&#xd1;" 
d="M441 0l-284 570v-570h-87v709h111l283 -573v573h86v-709h-109zM484 827q-19 -19 -35 -30.5t-29 -17.5t-23.5 -7.5t-20.5 -1.5q-23 0 -40 6t-36 17q-12 7 -27.5 14t-30.5 7q-7 0 -12 -0.5t-12 -3.5q-15 -6 -39 -30l-43 50q20 20 35 31t28 16.5t24 7t21 1.5q23 0 40 -6.5
t32 -14.5l29.5 -15.5t32.5 -7.5q10 0 23.5 4.5t39.5 29.5z" />
    <glyph glyph-name="Odieresis" unicode="&#xd6;" 
d="M489 354q0 28 -0.5 58.5t-5.5 61t-16.5 59t-33.5 50.5q-52 54 -123 54t-123 -54q-22 -22 -33.5 -50.5t-16.5 -59t-5.5 -61t-0.5 -58.5t0.5 -58.5t5.5 -61t16.5 -58.5t33.5 -51q52 -54 123 -54t123 54q22 23 33.5 51t16.5 58.5t5.5 61t0.5 58.5zM581 354q0 -42 -2.5 -82.5
t-11.5 -77.5t-26 -70t-46 -61q-38 -38 -84.5 -57.5t-100.5 -19.5t-100.5 19.5t-84.5 57.5q-29 28 -46 61t-26 70t-11.5 77.5t-2.5 82.5t2.5 82.5t11.5 77.5t26 70t46 61q38 38 84.5 57.5t100.5 19.5t100.5 -19.5t84.5 -57.5q29 -28 46 -61t26 -70t11.5 -77.5t2.5 -82.5z
M166 781v102h102v-102h-102zM352 781v102h102v-102h-102z" />
    <glyph glyph-name="Udieresis" unicode="&#xdc;" 
d="M558 258q0 -60 -15.5 -110t-46.5 -85.5t-77.5 -55.5t-109.5 -20q-62 0 -108.5 20t-77.5 56t-46.5 85.5t-15.5 109.5v451h89v-452q0 -40 8.5 -74.5t27.5 -59t49.5 -38.5t74.5 -14t74 14t49 39t27.5 59t8.5 74v452h89v-451zM166 780v102h102v-102h-102zM352 780v102h102
v-102h-102z" />
    <glyph glyph-name="aacute" unicode="&#xe1;" 
d="M422 244l-140 -8q-19 -1 -39 -6.5t-36 -16t-26.5 -27.5t-10.5 -41q0 -34 23.5 -60t77.5 -26q29 0 57.5 10t48.5 31q23 23 34 52.5t11 61.5v30zM558 5q-14 -7 -27 -9.5t-29 -2.5q-34 0 -54.5 22.5t-20.5 54.5h-2q-22 -38 -67.5 -60.5t-99.5 -22.5q-46 0 -79.5 14t-54.5 36
t-31 50t-10 56q0 24 8.5 50.5t29 49.5t55.5 39t88 19l158 9v37q0 19 -4.5 39.5t-21.5 36.5q-13 12 -33.5 19t-51.5 7q-35 0 -58.5 -8.5t-36.5 -21.5q-25 -25 -25 -60h-83q1 35 12.5 60.5t31.5 45.5q26 27 69 40.5t90 13.5q74 0 118 -27.5t62 -69.5q15 -34 15 -78v-245
q0 -20 8.5 -27t21.5 -7q6 0 14 2q4 1 8 1v-63zM232 552l-36 48l176 142l52 -73z" />
    <glyph glyph-name="agrave" unicode="&#xe0;" 
d="M422 244l-140 -8q-19 -1 -39 -6.5t-36 -16t-26.5 -27.5t-10.5 -41q0 -34 23.5 -60t77.5 -26q29 0 57.5 10t48.5 31q23 23 34 52.5t11 61.5v30zM558 5q-14 -7 -27 -9.5t-29 -2.5q-34 0 -54.5 22.5t-20.5 54.5h-2q-22 -38 -67.5 -60.5t-99.5 -22.5q-46 0 -79.5 14t-54.5 36
t-31 50t-10 56q0 24 8.5 50.5t29 49.5t55.5 39t88 19l158 9v37q0 19 -4.5 39.5t-21.5 36.5q-13 12 -33.5 19t-51.5 7q-35 0 -58.5 -8.5t-36.5 -21.5q-25 -25 -25 -60h-83q1 35 12.5 60.5t31.5 45.5q26 27 69 40.5t90 13.5q74 0 118 -27.5t62 -69.5q15 -34 15 -78v-245
q0 -20 8.5 -27t21.5 -7q6 0 14 2q4 1 8 1v-63zM389 552l-192 117l52 73l176 -142z" />
    <glyph glyph-name="acircumflex" unicode="&#xe2;" 
d="M422 244l-140 -8q-19 -1 -39 -6.5t-36 -16t-26.5 -27.5t-10.5 -41q0 -34 23.5 -60t77.5 -26q29 0 57.5 10t48.5 31q23 23 34 52.5t11 61.5v30zM558 5q-14 -7 -27 -9.5t-29 -2.5q-34 0 -54.5 22.5t-20.5 54.5h-2q-22 -38 -67.5 -60.5t-99.5 -22.5q-46 0 -79.5 14t-54.5 36
t-31 50t-10 56q0 24 8.5 50.5t29 49.5t55.5 39t88 19l158 9v37q0 19 -4.5 39.5t-21.5 36.5q-13 12 -33.5 19t-51.5 7q-35 0 -58.5 -8.5t-36.5 -21.5q-25 -25 -25 -60h-83q1 35 12.5 60.5t31.5 45.5q26 27 69 40.5t90 13.5q74 0 118 -27.5t62 -69.5q15 -34 15 -78v-245
q0 -20 8.5 -27t21.5 -7q6 0 14 2q4 1 8 1v-63zM422 553l-113 120l-113 -120l-50 43l134 142h57l134 -142z" />
    <glyph glyph-name="adieresis" unicode="&#xe4;" 
d="M422 244l-140 -8q-19 -1 -39 -6.5t-36 -16t-26.5 -27.5t-10.5 -41q0 -34 23.5 -60t77.5 -26q29 0 57.5 10t48.5 31q23 23 34 52.5t11 61.5v30zM558 5q-14 -7 -27 -9.5t-29 -2.5q-34 0 -54.5 22.5t-20.5 54.5h-2q-22 -38 -67.5 -60.5t-99.5 -22.5q-46 0 -79.5 14t-54.5 36
t-31 50t-10 56q0 24 8.5 50.5t29 49.5t55.5 39t88 19l158 9v37q0 19 -4.5 39.5t-21.5 36.5q-13 12 -33.5 19t-51.5 7q-35 0 -58.5 -8.5t-36.5 -21.5q-25 -25 -25 -60h-83q1 35 12.5 60.5t31.5 45.5q26 27 69 40.5t90 13.5q74 0 118 -27.5t62 -69.5q15 -34 15 -78v-245
q0 -20 8.5 -27t21.5 -7q6 0 14 2q4 1 8 1v-63zM168 589v102h102v-102h-102zM354 589v102h102v-102h-102z" />
    <glyph glyph-name="atilde" unicode="&#xe3;" 
d="M422 244l-140 -8q-19 -1 -39 -6.5t-36 -16t-26.5 -27.5t-10.5 -41q0 -34 23.5 -60t77.5 -26q29 0 57.5 10t48.5 31q23 23 34 52.5t11 61.5v30zM558 5q-14 -7 -27 -9.5t-29 -2.5q-34 0 -54.5 22.5t-20.5 54.5h-2q-22 -38 -67.5 -60.5t-99.5 -22.5q-46 0 -79.5 14t-54.5 36
t-31 50t-10 56q0 24 8.5 50.5t29 49.5t55.5 39t88 19l158 9v37q0 19 -4.5 39.5t-21.5 36.5q-13 12 -33.5 19t-51.5 7q-35 0 -58.5 -8.5t-36.5 -21.5q-25 -25 -25 -60h-83q1 35 12.5 60.5t31.5 45.5q26 27 69 40.5t90 13.5q74 0 118 -27.5t62 -69.5q15 -34 15 -78v-245
q0 -20 8.5 -27t21.5 -7q6 0 14 2q4 1 8 1v-63zM485 647q-19 -19 -34.5 -30.5t-28.5 -17.5t-23.5 -7.5t-20.5 -1.5q-23 0 -40.5 5.5t-36.5 16.5q-12 7 -27 14t-30 7q-7 0 -12 -0.5t-12 -3.5q-8 -3 -17 -9.5t-22 -19.5l-43 49q20 20 35 31t27.5 17t23.5 7.5t21 1.5q23 0 40 -7
t32 -15t29.5 -15t32.5 -7q10 0 23.5 4.5t39.5 29.5z" />
    <glyph glyph-name="aring" unicode="&#xe5;" 
d="M422 244l-140 -8q-19 -1 -39 -6.5t-36 -16t-26.5 -27.5t-10.5 -41q0 -34 23.5 -60t77.5 -26q29 0 57.5 10t48.5 31q23 23 34 52.5t11 61.5v30zM558 5q-14 -7 -27 -9.5t-29 -2.5q-34 0 -54.5 22.5t-20.5 54.5h-2q-22 -38 -67.5 -60.5t-99.5 -22.5q-46 0 -79.5 14t-54.5 36
t-31 50t-10 56q0 24 8.5 50.5t29 49.5t55.5 39t88 19l158 9v37q0 19 -4.5 39.5t-21.5 36.5q-13 12 -33.5 19t-51.5 7q-35 0 -58.5 -8.5t-36.5 -21.5q-25 -25 -25 -60h-83q1 35 12.5 60.5t31.5 45.5q26 27 69 40.5t90 13.5q74 0 118 -27.5t62 -69.5q15 -34 15 -78v-245
q0 -20 8.5 -27t21.5 -7q6 0 14 2q4 1 8 1v-63zM366 671q0 23 -14.5 39.5t-39.5 16.5t-40 -16.5t-15 -39.5t15 -39t40 -16t39.5 16t14.5 39zM422 671q0 -21 -7.5 -40t-21.5 -34t-34.5 -24t-46.5 -9t-46.5 9t-34.5 24t-21.5 34t-7.5 40t7.5 40t21.5 34t34.5 24t46.5 9t46.5 -9
t34.5 -24t21.5 -34t7.5 -40z" />
    <glyph glyph-name="ccedilla" unicode="&#xe7;" 
d="M161 457q28 27 69 44.5t89 17.5q45 0 84 -14.5t65 -40.5q26 -25 43 -56t20 -73h-86q-3 26 -14.5 45t-25.5 33q-15 14 -38 23t-48 9q-30 0 -53.5 -10.5t-40.5 -25.5q-32 -29 -43.5 -71.5t-11.5 -84.5t11.5 -84t43.5 -71q17 -15 40.5 -26t53.5 -11q25 0 48 9t38 23
q14 14 26 33t15 45h85q-3 -42 -20.5 -73.5t-43.5 -56.5q-26 -26 -64.5 -40t-83.5 -14q-48 0 -89 17.5t-69 44.5q-42 41 -60 92.5t-18 111.5t18 111.5t60 92.5zM299 -243l-92 41l82 142h82z" />
    <glyph glyph-name="eacute" unicode="&#xe9;" 
d="M453 296q-1 32 -12 60.5t-31 48.5q-39 41 -97 41q-36 0 -63 -15t-45 -37.5t-27 -48.5t-10 -49h285zM165 226q0 -33 12 -67t39 -60q18 -17 42.5 -27.5t54.5 -10.5q34 0 54 7.5t39 22.5q14 11 25.5 27t16.5 34h82q-9 -39 -29 -70t-48.5 -52t-64 -32t-75.5 -11
q-49 0 -89.5 18.5t-70.5 47.5q-41 40 -58 92t-17 106q0 60 19 112.5t56 90.5q29 29 69.5 47t91.5 18q48 0 88.5 -17t67.5 -44q36 -37 54.5 -89.5t18.5 -112.5v-30h-378zM243 550l-35 49l175 141l52 -73z" />
    <glyph glyph-name="egrave" unicode="&#xe8;" 
d="M453 296q-1 32 -12 60.5t-31 48.5q-39 41 -97 41q-36 0 -63 -15t-45 -37.5t-27 -48.5t-10 -49h285zM165 226q0 -33 12 -67t39 -60q18 -17 42.5 -27.5t54.5 -10.5q34 0 54 7.5t39 22.5q14 11 25.5 27t16.5 34h82q-9 -39 -29 -70t-48.5 -52t-64 -32t-75.5 -11
q-49 0 -89.5 18.5t-70.5 47.5q-41 40 -58 92t-17 106q0 60 19 112.5t56 90.5q29 29 69.5 47t91.5 18q48 0 88.5 -17t67.5 -44q36 -37 54.5 -89.5t18.5 -112.5v-30h-378zM398 553l-192 117l52 73l176 -141z" />
    <glyph glyph-name="ecircumflex" unicode="&#xea;" 
d="M453 296q-1 32 -12 60.5t-31 48.5q-39 41 -97 41q-36 0 -63 -15t-45 -37.5t-27 -48.5t-10 -49h285zM165 226q0 -33 12 -67t39 -60q18 -17 42.5 -27.5t54.5 -10.5q34 0 54 7.5t39 22.5q14 11 25.5 27t16.5 34h82q-9 -39 -29 -70t-48.5 -52t-64 -32t-75.5 -11
q-49 0 -89.5 18.5t-70.5 47.5q-41 40 -58 92t-17 106q0 60 19 112.5t56 90.5q29 29 69.5 47t91.5 18q48 0 88.5 -17t67.5 -44q36 -37 54.5 -89.5t18.5 -112.5v-30h-378zM429 553l-113 120l-113 -120l-49 43l134 142h57l134 -142z" />
    <glyph glyph-name="edieresis" unicode="&#xeb;" 
d="M453 296q-1 32 -12 60.5t-31 48.5q-39 41 -97 41q-36 0 -63 -15t-45 -37.5t-27 -48.5t-10 -49h285zM165 226q0 -33 12 -67t39 -60q18 -17 42.5 -27.5t54.5 -10.5q34 0 54 7.5t39 22.5q14 11 25.5 27t16.5 34h82q-9 -39 -29 -70t-48.5 -52t-64 -32t-75.5 -11
q-49 0 -89.5 18.5t-70.5 47.5q-41 40 -58 92t-17 106q0 60 19 112.5t56 90.5q29 29 69.5 47t91.5 18q48 0 88.5 -17t67.5 -44q36 -37 54.5 -89.5t18.5 -112.5v-30h-378zM165 589v102h102v-102h-102zM351 589v102h102v-102h-102z" />
    <glyph glyph-name="iacute" unicode="&#xed;" 
d="M112 0v73h182v361h-162v72h248v-433h183v-73h-451zM238 548l-35 49l175 141l52 -73z" />
    <glyph glyph-name="igrave" unicode="&#xec;" 
d="M112 0v73h182v361h-162v72h248v-433h183v-73h-451zM365 547l-192 117l52 73l175 -141z" />
    <glyph glyph-name="icircumflex" unicode="&#xee;" 
d="M112 0v73h182v361h-162v72h248v-433h183v-73h-451zM443 553l-113 120l-113 -120l-50 43l134 142h57l134 -142z" />
    <glyph glyph-name="idieresis" unicode="&#xef;" 
d="M112 0v73h182v361h-162v72h248v-433h183v-73h-451zM185 599v102h102v-102h-102zM371 599v102h102v-102h-102z" />
    <glyph glyph-name="ntilde" unicode="&#xf1;" 
d="M440 0v321q0 57 -27 89t-87 32q-37 0 -65.5 -22.5t-45.5 -57.5q-13 -28 -17.5 -65t-4.5 -66v-231h-86v506h75l7 -76q10 22 28 38.5t39.5 28t45.5 17t45 5.5q87 0 133.5 -49t46.5 -137v-333h-87zM495 647q-19 -19 -35 -30.5t-29 -17.5t-23.5 -7.5t-20.5 -1.5
q-23 0 -40 5.5t-36 16.5q-12 7 -27.5 14t-30.5 7q-7 0 -12 -0.5t-12 -3.5q-8 -3 -17 -9.5t-22 -19.5l-43 49q20 20 35 31t27.5 17t23.5 7.5t21 1.5q23 0 40.5 -7t32.5 -15l29 -15t32 -7q10 0 24 4.5t40 29.5z" />
    <glyph glyph-name="oacute" unicode="&#xf3;" 
d="M461 253q0 42 -12.5 84.5t-44.5 71.5q-17 15 -40.5 25.5t-53.5 10.5t-53.5 -10.5t-40.5 -25.5q-32 -29 -44.5 -71t-12.5 -84t12.5 -85t44.5 -72q17 -15 40.5 -25.5t53.5 -10.5t53.5 10.5t40.5 25.5q32 29 44.5 71.5t12.5 84.5zM548 254q0 -60 -18.5 -112.5t-60.5 -93.5
q-28 -27 -69 -44t-89 -17t-90 17t-70 44q-42 41 -60.5 93t-18.5 112t18.5 112t60.5 93q28 27 70 44t90 17t89 -17t69 -44q42 -41 60.5 -92.5t18.5 -111.5zM232 551l-36 49l176 141l52 -73z" />
    <glyph glyph-name="ograve" unicode="&#xf2;" 
d="M461 253q0 42 -12.5 84.5t-44.5 71.5q-17 15 -40.5 25.5t-53.5 10.5t-53.5 -10.5t-40.5 -25.5q-32 -29 -44.5 -71t-12.5 -84t12.5 -85t44.5 -72q17 -15 40.5 -25.5t53.5 -10.5t53.5 10.5t40.5 25.5q32 29 44.5 71.5t12.5 84.5zM548 254q0 -60 -18.5 -112.5t-60.5 -93.5
q-28 -27 -69 -44t-89 -17t-90 17t-70 44q-42 41 -60.5 93t-18.5 112t18.5 112t60.5 93q28 27 70 44t90 17t89 -17t69 -44q42 -41 60.5 -92.5t18.5 -111.5zM385 552l-192 117l52 73l176 -142z" />
    <glyph glyph-name="ocircumflex" unicode="&#xf4;" 
d="M461 253q0 42 -12.5 84.5t-44.5 71.5q-17 15 -40.5 25.5t-53.5 10.5t-53.5 -10.5t-40.5 -25.5q-32 -29 -44.5 -71t-12.5 -84t12.5 -85t44.5 -72q17 -15 40.5 -25.5t53.5 -10.5t53.5 10.5t40.5 25.5q32 29 44.5 71.5t12.5 84.5zM548 254q0 -60 -18.5 -112.5t-60.5 -93.5
q-28 -27 -69 -44t-89 -17t-90 17t-70 44q-42 41 -60.5 93t-18.5 112t18.5 112t60.5 93q28 27 70 44t90 17t89 -17t69 -44q42 -41 60.5 -92.5t18.5 -111.5zM423 553l-113 120l-113 -120l-49 43l133 142h58l133 -142z" />
    <glyph glyph-name="odieresis" unicode="&#xf6;" 
d="M461 253q0 42 -12.5 84.5t-44.5 71.5q-17 15 -40.5 25.5t-53.5 10.5t-53.5 -10.5t-40.5 -25.5q-32 -29 -44.5 -71t-12.5 -84t12.5 -85t44.5 -72q17 -15 40.5 -25.5t53.5 -10.5t53.5 10.5t40.5 25.5q32 29 44.5 71.5t12.5 84.5zM548 254q0 -60 -18.5 -112.5t-60.5 -93.5
q-28 -27 -69 -44t-89 -17t-90 17t-70 44q-42 41 -60.5 93t-18.5 112t18.5 112t60.5 93q28 27 70 44t90 17t89 -17t69 -44q42 -41 60.5 -92.5t18.5 -111.5zM165 589v102h102v-102h-102zM351 589v102h102v-102h-102z" />
    <glyph glyph-name="otilde" unicode="&#xf5;" 
d="M461 253q0 42 -12.5 84.5t-44.5 71.5q-17 15 -40.5 25.5t-53.5 10.5t-53.5 -10.5t-40.5 -25.5q-32 -29 -44.5 -71t-12.5 -84t12.5 -85t44.5 -72q17 -15 40.5 -25.5t53.5 -10.5t53.5 10.5t40.5 25.5q32 29 44.5 71.5t12.5 84.5zM548 254q0 -60 -18.5 -112.5t-60.5 -93.5
q-28 -27 -69 -44t-89 -17t-90 17t-70 44q-42 41 -60.5 93t-18.5 112t18.5 112t60.5 93q28 27 70 44t90 17t89 -17t69 -44q42 -41 60.5 -92.5t18.5 -111.5zM484 653q-19 -19 -35 -30.5t-29 -17.5t-23.5 -7.5t-20.5 -1.5q-23 0 -40 6t-36 17q-12 7 -27.5 13.5t-30.5 6.5
q-7 0 -12 -0.5t-12 -3.5q-8 -3 -17 -9.5t-22 -19.5l-43 50q20 20 35 31t28 16.5t24 7t21 1.5q23 0 40 -7t32 -15t29.5 -15t32.5 -7q10 0 23.5 4.5t39.5 29.5z" />
    <glyph glyph-name="uacute" unicode="&#xfa;" 
d="M440 0l-7 76q-10 -22 -27.5 -38.5t-38.5 -28t-44.5 -17t-44.5 -5.5q-40 0 -72.5 13t-56 37.5t-36.5 59t-13 76.5v333h86v-321q0 -57 26 -89t86 -32q27 0 51 11.5t41.5 31t28 47t10.5 58.5v294h86v-506h-75zM225 550l-36 49l176 141l52 -73z" />
    <glyph glyph-name="ugrave" unicode="&#xf9;" 
d="M440 0l-7 76q-10 -22 -27.5 -38.5t-38.5 -28t-44.5 -17t-44.5 -5.5q-40 0 -72.5 13t-56 37.5t-36.5 59t-13 76.5v333h86v-321q0 -57 26 -89t86 -32q27 0 51 11.5t41.5 31t28 47t10.5 58.5v294h86v-506h-75zM381 550l-193 117l53 73l175 -141z" />
    <glyph glyph-name="ucircumflex" unicode="&#xfb;" 
d="M440 0l-7 76q-10 -22 -27.5 -38.5t-38.5 -28t-44.5 -17t-44.5 -5.5q-40 0 -72.5 13t-56 37.5t-36.5 59t-13 76.5v333h86v-321q0 -57 26 -89t86 -32q27 0 51 11.5t41.5 31t28 47t10.5 58.5v294h86v-506h-75zM419 553l-113 120l-113 -120l-49 43l134 142h57l134 -142z" />
    <glyph glyph-name="udieresis" unicode="&#xfc;" 
d="M440 0l-7 76q-10 -22 -27.5 -38.5t-38.5 -28t-44.5 -17t-44.5 -5.5q-40 0 -72.5 13t-56 37.5t-36.5 59t-13 76.5v333h86v-321q0 -57 26 -89t86 -32q27 0 51 11.5t41.5 31t28 47t10.5 58.5v294h86v-506h-75zM165 589v102h102v-102h-102zM351 589v102h102v-102h-102z" />
    <glyph glyph-name="dagger" unicode="&#x2020;" 
d="M352 433v-558h-83v558h-187v73h187v203h83v-203h186v-73h-186z" />
    <glyph glyph-name="degree" unicode="&#xb0;" 
d="M401 558q0 42 -26 67.5t-65 25.5t-64.5 -25.5t-25.5 -67.5t25.5 -67.5t64.5 -25.5t65 25.5t26 67.5zM476 558q0 -36 -12.5 -66t-35 -52t-53 -34t-65.5 -12t-65.5 12t-52.5 34t-34.5 52t-12.5 66t12.5 66t34.5 52t52.5 34t65.5 12t65.5 -12t53 -34t35 -52t12.5 -66z" />
    <glyph glyph-name="cent" unicode="&#xa2;" 
d="M281 536q-31 -8 -51 -26.5t-31 -43.5t-15.5 -55t-4.5 -60q0 -31 4.5 -61t16 -55.5t31 -44t50.5 -26.5v372zM527 269q-6 -78 -51.5 -127.5t-129.5 -57.5v-85h-65v86q-51 8 -85.5 31.5t-59.5 59.5q-23 35 -33.5 79t-10.5 94t9 95t32 80q25 36 60.5 59.5t87.5 31.5v93h65
v-92q80 -8 127 -58t53 -127h-88q-5 45 -28.5 72.5t-63.5 35.5v-378q46 8 67 37t27 71h87z" />
    <glyph glyph-name="sterling" unicode="&#xa3;" 
d="M577 157q0 -81 -43 -119t-121 -38h-327v79q79 2 79 80v172h-80v73h80v109q0 38 12.5 73.5t37 63t61 44t83.5 16.5q43 0 77.5 -14t59 -38t38 -57t13.5 -71h-85q0 47 -28 76t-77 29q-57 0 -81.5 -35.5t-24.5 -86.5v-109h161v-73h-161v-176q0 -23 -9 -46.5t-34 -30.5v-2
l208 1q38 0 57 21.5t20 58.5h84z" />
    <glyph glyph-name="section" unicode="&#xa7;" 
d="M235 394q-24 -13 -37 -33.5t-15.5 -43.5t6.5 -45.5t29 -39.5l184 -158q24 13 37 33.5t15.5 43.5t-6.5 45.5t-29 39.5zM537 163q0 -22 -7.5 -42.5t-19.5 -37.5t-27.5 -31t-31.5 -24q20 -23 30.5 -49.5t10.5 -59.5q0 -35 -13 -64.5t-34 -49.5q-50 -48 -131 -48
q-84 0 -135 54q-46 49 -46 125h83q0 -21 5.5 -41t20.5 -37q12 -14 31.5 -21.5t40.5 -7.5q40 0 67.5 23.5t27.5 64.5q0 26 -11 45.5t-31 36.5l-202 171q-35 29 -50 61.5t-15 73.5q0 23 7.5 43t19.5 37.5t27.5 31t31.5 23.5q-20 23 -30.5 49.5t-10.5 59.5q0 35 13 63.5
t34 48.5q24 23 57.5 36.5t73.5 13.5q84 0 135 -54q46 -49 46 -125h-83q0 21 -5.5 41t-20.5 37q-12 14 -31.5 21.5t-40.5 7.5q-40 0 -67.5 -23.5t-27.5 -64.5q0 -26 11 -45.5t31 -36.5l202 -171q35 -29 50 -61.5t15 -73.5z" />
    <glyph glyph-name="bullet" unicode="&#x2022;" 
d="M446 291q0 -28 -10.5 -53t-29 -43.5t-43.5 -29t-53 -10.5t-53 10.5t-43.5 29t-29 43.5t-10.5 53t10.5 53t29 43.5t43.5 29t53 10.5t53 -10.5t43.5 -29t29 -43.5t10.5 -53z" />
    <glyph glyph-name="paragraph" unicode="&#xb6;" 
d="M493 640v-765h-72v765h-112v-765h-74v457q-39 0 -73 15t-59.5 40.5t-40.5 60t-15 73.5t15 73.5t40.5 60t59.5 40t73 14.5h327v-69h-69z" />
    <glyph glyph-name="germandbls" unicode="&#xdf;" 
d="M576 208q0 -51 -16.5 -90.5t-46.5 -67t-70.5 -42t-88.5 -14.5q-21 0 -42.5 1.5t-41.5 6.5v71q17 -3 33.5 -4t33.5 -1q32 0 59.5 8t48 25.5t32 44t11.5 62.5q0 41 -12.5 68.5t-34 45t-51 25t-62.5 7.5h-28v74h28q23 0 43.5 9t36 25.5t24.5 38.5t9 47q0 50 -28.5 81
t-84.5 31q-33 0 -55.5 -12t-36.5 -33t-20.5 -50t-6.5 -62v-503h-86v430h-85v76h86q0 107 53.5 166.5t150.5 59.5q46 0 83 -13.5t63 -37.5t40 -58t14 -75q0 -55 -30 -97.5t-79 -55.5q36 -4 65 -21t49.5 -42t31.5 -57t11 -67z" />
    <glyph glyph-name="registered" unicode="&#xae;" 
d="M369 412q0 17 -11.5 29.5t-35.5 12.5h-54v-87h55q26 0 36 13.5t10 31.5zM368 216l-45 105h-54v-105h-51v284h108q43 0 69 -25t26 -63q0 -59 -48 -82l50 -114h-55zM525 354q0 45 -17 84.5t-46 69.5t-68 47t-84 17t-84 -17t-68 -47t-46 -69.5t-17 -84.5t17 -84.5t46 -69.5
t68 -47t84 -17t84 17t68 47t46 69.5t17 84.5zM576 354q0 -56 -21 -105t-57 -86t-84.5 -58t-103.5 -21t-103.5 21t-84.5 58t-57 86t-21 105t21 105t57 86t84.5 58t103.5 21t103.5 -21t84.5 -58t57 -86t21 -105z" />
    <glyph glyph-name="copyright" unicode="&#xa9;" 
d="M434 314q-4 -50 -36.5 -79t-84.5 -29q-33 0 -57.5 11.5t-41 31.5t-25 46.5t-8.5 56.5q0 31 8 57.5t24 46t41 31t59 11.5q50 0 83 -28t37 -78h-55q-4 30 -22 43.5t-43 13.5q-22 0 -36.5 -8t-23.5 -21.5t-13 -30.5t-4 -36t4 -37t13 -31.5t24 -21.5t36 -8q29 0 45 15.5
t21 43.5h55zM525 354q0 45 -17 84.5t-46 69.5t-68 47t-84 17t-84 -17t-68 -47t-46 -69.5t-17 -84.5t17 -84.5t46 -69.5t68 -47t84 -17t84 17t68 47t46 69.5t17 84.5zM576 354q0 -56 -21 -105t-57 -86t-84.5 -58t-103.5 -21t-103.5 21t-84.5 58t-57 86t-21 105t21 105t57 86
t84.5 58t103.5 21t103.5 -21t84.5 -58t57 -86t21 -105z" />
    <glyph glyph-name="trademark" unicode="&#x2122;" 
d="M161 652v-297h-61v297h-96v55h253v-55h-96zM516 355v266l-56 -148h-45l-56 148v-266h-62v352h82l59 -152l58 152h81v-352h-61z" />
    <glyph glyph-name="acute" unicode="&#xb4;" 
d="M232 548l-36 49l176 141l52 -73z" />
    <glyph glyph-name="dieresis" unicode="&#xa8;" 
d="M166 599v102h102v-102h-102zM352 599v102h102v-102h-102z" />
    <glyph glyph-name="notequal" unicode="&#x2260;" 
d="M261 135l-83 -119l-57 44l52 75h-104v79h159l90 128h-249v79h304l78 112l58 -44l-48 -68h90v-79h-145l-90 -128h235v-79h-290z" />
    <glyph glyph-name="AE" unicode="&#xc6;" 
d="M249 631l-109 -359h143v359h-34zM283 189h-168l-57 -189h-89l220 709h413v-81h-231v-218h157v-81h-157v-248h231v-81h-319v189z" />
    <glyph glyph-name="Oslash" unicode="&#xd8;" 
d="M409 604q-43 33 -99 33q-71 0 -123 -54q-22 -22 -33.5 -50.5t-16.5 -59t-5.5 -61t-0.5 -58.5t0.5 -58.5t5.5 -61t16.5 -58.5t33.5 -51l2 -2l52 114.5l57.5 125.5l58 126zM489 354q0 24 -0.5 50.5t-3.5 52.5t-10 51.5t-21 47.5l-52 -115.5l-56.5 -123.5l-55.5 -121.5
l-50 -109.5q32 -15 70 -15q71 0 123 54q22 23 33.5 51t16.5 58.5t5.5 61t0.5 58.5zM581 354q0 -42 -2.5 -82.5t-11.5 -77.5t-26 -70t-46 -61q-38 -38 -84.5 -57.5t-100.5 -19.5q-29 0 -55 5.5t-51 16.5l-35 -77l-56 26l38 83l-26 23q-29 28 -46 61t-26 70t-11.5 77.5
t-2.5 82.5t2.5 82.5t11.5 77.5t26 70t46 61q38 38 84.5 57.5t100.5 19.5q74 0 135 -38l23.5 52.5t14.5 31.5l55 -25q-5 -13 -16.5 -37.5l-27.5 -59.5l1 -1q29 -28 46 -61t26 -70t11.5 -77.5t2.5 -82.5z" />
    <glyph glyph-name="infinity" unicode="&#x221e;" 
d="M401 279v49h-126q-31 0 -58 -10t-47 -27t-31 -41t-11 -53q0 -24 7.5 -44t20.5 -34q20 -22 49.5 -32.5t61.5 -10.5h134v203zM486 328v-252h110v-76h-331q-57 0 -98.5 15.5t-70.5 43.5q-57 55 -57 141q0 27 9 52t24.5 46.5t37 38.5t46.5 27q-45 20 -75 60.5t-30 93.5
q0 47 14 79.5t43 58.5q27 25 65 39.5t89 14.5q23 0 45.5 -2t40.5 -7v-77q-32 7 -80 7q-31 0 -53 -8.5t-38 -22.5q-34 -32 -34 -80q0 -55 33.5 -86t92.5 -31h132v115h85v-115h111v-75h-111z" />
    <glyph glyph-name="plusminus" unicode="&#xb1;" 
d="M91 0v69h439v-69h-439zM346 332v-187h-70v187h-185v70h185v185h70v-185h184v-70h-184z" />
    <glyph glyph-name="lessequal" unicode="&#x2264;" 
d="M148 268l173 -173l-52 -53l-264 262l265 264l53 -51l-175 -175h458v-74h-458z" />
    <glyph glyph-name="greaterequal" unicode="&#x2265;" 
d="M351 42l-52 53l173 173h-458v74h458l-175 175l53 51l265 -264z" />
    <glyph glyph-name="yen" unicode="&#xa5;" 
d="M396 382h132v-61h-174v-91h174v-61h-174v-169h-89v169h-163v61h163v91h-163v61h121l-178 313h94l174 -309l170 309h92z" />
    <glyph glyph-name="mu" unicode="&#xb5;" 
d="M438 0l-7 77q-20 -44 -62.5 -66.5t-87.5 -22.5q-26 0 -50 7.5t-38 18.5v-214h-85v374v273v59h85v-59v-261q0 -57 24 -89t84 -32q26 0 46.5 10.5t37.5 27.5q24 25 33 63t9 77v263h85v-506h-74z" />
    <glyph glyph-name="mu" unicode="&#x3bc;" 
d="M438 0l-7 77q-20 -44 -62.5 -66.5t-87.5 -22.5q-26 0 -50 7.5t-38 18.5v-214h-85v374v273v59h85v-59v-261q0 -57 24 -89t84 -32q26 0 46.5 10.5t37.5 27.5q24 25 33 63t9 77v263h85v-506h-74z" />
    <glyph glyph-name="partialdiff" unicode="&#x2202;" 
d="M434 496v-381l-330 190z" />
    <glyph glyph-name="summation" unicode="&#x2211;" 
d="M186 115v381l330 -191z" />
    <glyph glyph-name="product" unicode="&#x220f;" 
d="M94 -268q0 -8 -6.5 -14.5t-14.5 -6.5t-14.5 6.5t-6.5 14.5t6.5 14t14.5 6t14.5 -6t6.5 -14zM94 -16q0 -8 -6.5 -14.5t-14.5 -6.5t-14.5 6.5t-6.5 14.5t6.5 14.5t14.5 6.5t14.5 -6.5t6.5 -14.5zM251 -139q0 -8 -6.5 -14.5t-14.5 -6.5t-14.5 6.5t-6.5 14.5t6.5 14.5
t14.5 6.5t14.5 -6.5t6.5 -14.5zM409 -268q0 -8 -6.5 -14.5t-14.5 -6.5t-14.5 6.5t-6.5 14.5t6.5 14t14.5 6t14.5 -6t6.5 -14zM93 236q0 -8 -6.5 -14.5t-14.5 -6.5t-14.5 6.5t-6.5 14.5t6.5 14t14.5 6t14.5 -6t6.5 -14zM251 113q0 -8 -6.5 -14.5t-14.5 -6.5t-14 6.5t-6 14.5
t6 14.5t14 6.5t14.5 -6.5t6.5 -14.5zM409 -16q0 -8 -6.5 -14.5t-14.5 -6.5t-14.5 6.5t-6.5 14.5t6.5 14.5t14.5 6.5t14.5 -6.5t6.5 -14.5zM566 -139q0 -8 -6.5 -14.5t-14.5 -6.5t-14.5 6.5t-6.5 14.5t6.5 14.5t14.5 6.5t14.5 -6.5t6.5 -14.5zM96 486q0 -8 -6.5 -14.5
t-14.5 -6.5t-14.5 6.5t-6.5 14.5t6.5 14.5t14.5 6.5t14.5 -6.5t6.5 -14.5zM250 365q0 -8 -6.5 -14.5t-14.5 -6.5t-14.5 6.5t-6.5 14.5t6.5 14t14.5 6t14.5 -6t6.5 -14zM408 236q0 -8 -6.5 -14.5t-14.5 -6.5t-14.5 6.5t-6.5 14.5t6.5 14t14.5 6t14.5 -6t6.5 -14zM566 113
q0 -8 -6.5 -14.5t-14.5 -6.5t-14.5 6.5t-6.5 14.5t6.5 14.5t14.5 6.5t14.5 -6.5t6.5 -14.5zM97 737q0 -8 -6.5 -14t-14.5 -6t-14.5 6t-6.5 14t6.5 14.5t14.5 6.5t14.5 -6.5t6.5 -14.5zM253 615q0 -8 -6.5 -14.5t-14.5 -6.5t-14.5 6.5t-6.5 14.5t6.5 14.5t14.5 6.5t14.5 -6.5
t6.5 -14.5zM410 486q0 -8 -6 -14.5t-14 -6.5t-14.5 6.5t-6.5 14.5t6.5 14.5t14.5 6.5t14 -6.5t6 -14.5zM565 365q0 -8 -6.5 -14.5t-14.5 -6.5t-14.5 6.5t-6.5 14.5t6.5 14t14.5 6t14.5 -6t6.5 -14zM254 867q0 -8 -6.5 -14.5t-14.5 -6.5t-14.5 6.5t-6.5 14.5t6.5 14t14.5 6
t14.5 -6t6.5 -14zM412 737q0 -8 -6.5 -14t-14.5 -6t-14.5 6t-6.5 14t6.5 14.5t14.5 6.5t14.5 -6.5t6.5 -14.5zM567 615q0 -8 -6 -14.5t-14 -6.5t-14.5 6.5t-6.5 14.5t6.5 14.5t14.5 6.5t14 -6.5t6 -14.5zM569 867q0 -8 -6.5 -14.5t-14.5 -6.5t-14.5 6.5t-6.5 14.5t6.5 14
t14.5 6t14.5 -6t6.5 -14z" />
    <glyph glyph-name="pi" unicode="&#x3c0;" 
d="M564 4q-4 -2 -20 -6.5t-47 -4.5q-30 0 -51 10.5t-34 28t-18.5 40t-5.5 46.5v320h-3h-164v-439h-84v439h-78v68h491v-68h-77v-310q0 -27 9 -44.5t37 -17.5q21 0 31 1.5t14 3.5v-67z" />
    <glyph glyph-name="integral" unicode="&#x222b;" 
d="M505 259l-324 324v-245l-75 -1v372h374v-74h-247l324 -324z" />
    <glyph glyph-name="ordfeminine" unicode="&#xaa;" 
d="M384 496l-100 -6q-15 -1 -29.5 -5t-26 -12t-19 -20t-7.5 -30q0 -25 16.5 -44.5t57.5 -19.5q22 0 41.5 7t34.5 23q17 17 24.5 40t7.5 46v21zM489 315q-11 -6 -21.5 -8t-22.5 -2q-26 0 -41 16.5t-17 39.5q-17 -28 -49 -44t-72 -16q-33 0 -58.5 10t-42 27t-25 38.5
t-8.5 44.5q0 19 7 39.5t23 38t42.5 29.5t66.5 15l113 7v26q0 14 -2.5 30.5t-15.5 27.5q-9 8 -24 13.5t-38 5.5q-26 0 -42 -6t-26 -16q-18 -18 -18 -48h-67q1 33 13.5 57t33.5 39t48.5 22.5t57.5 7.5q57 0 90 -21.5t47 -53.5q6 -14 8 -28.5t2 -31.5v-186q0 -15 5.5 -19.5
t14.5 -4.5q7 0 11 1t7 1v-51z" />
    <glyph glyph-name="ordmasculine" unicode="&#xba;" 
d="M411 505q0 34 -7 65.5t-27 52.5q-24 26 -67 26q-23 0 -39 -7t-27 -19q-20 -21 -27 -52.5t-7 -65.5t7 -66t27 -53q11 -12 27 -19t39 -7q43 0 67 26q20 21 27 53t7 66zM481 505q0 -46 -11 -86.5t-43 -72.5q-21 -21 -50.5 -33.5t-66.5 -12.5t-66 12.5t-50 33.5
q-32 32 -43.5 72.5t-11.5 86.5t11.5 86t43.5 72q21 21 50 33.5t66 12.5t66.5 -12.5t50.5 -33.5q32 -32 43 -72t11 -86z" />
    <glyph glyph-name="ae" unicode="&#xe6;" 
d="M225 228q-45 0 -71 -23.5t-26 -60.5q0 -43 28 -63.5t69 -20.5h48v168h-48zM460 397q-20 20 -46.5 33.5t-58.5 15.5v-150h144q-1 62 -39 101zM355 64q21 0 42 5t39 15.5t32 27t20 39.5h81q-10 -53 -44 -88t-80 -54q-25 -11 -63 -15.5t-72 -4.5h-85q-42 0 -80.5 14.5
t-61.5 39.5q-17 19 -27 43.5t-10 56.5q0 30 10 54.5t28 44.5q24 25 61.5 39.5t73.5 14.5h54v155q-27 0 -47.5 -7t-36.5 -21q-13 -11 -22 -26.5t-11 -36.5h-81q2 29 15 55t34 46q38 36 88 47t98 11q65 0 115 -16t89 -54q71 -70 71 -196v-27h-230v-162z" />
    <glyph glyph-name="oslash" unicode="&#xf8;" 
d="M389 421q-15 11 -35 17.5t-44 6.5q-30 0 -53.5 -10.5t-40.5 -25.5q-32 -29 -44.5 -71t-12.5 -84q0 -33 7.5 -67.5t26.5 -63.5zM461 253q0 29 -6 60.5t-21 57.5l-192 -292q29 -18 68 -18q30 0 53.5 10.5t40.5 25.5q32 29 44.5 71.5t12.5 84.5zM548 254q0 -60 -18.5 -112.5
t-60.5 -93.5q-28 -27 -69 -44t-89 -17q-31 0 -59.5 7t-52.5 20l-48 -73l-54 36l50 75q-39 41 -57 91.5t-18 109.5q0 60 18.5 112t60.5 93q28 27 70 44t90 17q35 0 65.5 -9t56.5 -24l49 75l53 -36l-53 -81q35 -39 50.5 -87t15.5 -103z" />
    <glyph glyph-name="questiondown" unicode="&#xbf;" 
d="M530 1q0 -42 -14.5 -82t-42.5 -70.5t-70 -49t-97 -18.5q-42 0 -80.5 13t-67 37.5t-45.5 59.5t-17 80q0 60 28.5 103t79.5 81q24 18 38 33t21.5 30.5t9.5 33t2 40.5v22h82v-25q0 -40 -6.5 -68t-20 -50.5t-34.5 -42t-51 -42.5t-45.5 -49t-15.5 -67q0 -44 30 -76
q17 -17 41 -26.5t51 -9.5q33 0 58 11.5t42 31t25.5 45.5t8.5 55h90zM249 372v134h131v-134h-131z" />
    <glyph glyph-name="exclamdown" unicode="&#xa1;" 
d="M257 -204v204l22 290h60l22 -290v-204h-104zM239 362v144h139v-144h-139z" />
    <glyph glyph-name="logicalnot" unicode="&#xac;" 
d="M462 99v165h-407v77h485v-242h-78z" />
    <glyph glyph-name="radical" unicode="&#x221a;" 
d="M573 766l-259 -774h-77l-179 512h91l127 -385l230 713h177v-66h-110z" />
    <glyph glyph-name="florin" unicode="&#x192;" 
d="M532 635q-5 1 -19 3.5t-39 2.5q-12 0 -25 -4t-24.5 -14t-21 -27t-14.5 -44l-23 -115h141v-75h-156l-67 -339q-13 -65 -54.5 -101.5t-93.5 -36.5q-29 0 -45 2.5t-30 5.5v75q5 -1 19 -3.5t39 -2.5q12 0 25 4t24.5 14t21 27t14.5 44l62 311h-102v75h117l28 143
q13 65 54.5 101.5t93.5 36.5q29 0 45 -2.5t30 -5.5v-75z" />
    <glyph glyph-name="approxequal" unicode="&#x2248;" 
d="M563 184q-34 -34 -68.5 -56t-84.5 -22q-28 0 -54.5 9t-51 20t-48.5 20t-47 9q-33 0 -54.5 -12.5t-44.5 -35.5l-53 54q35 34 69 56t84 22q29 0 56.5 -8.5t52.5 -19l48 -19.5t43 -9q33 0 54.5 12t44.5 35zM563 374q-34 -34 -68.5 -56t-84.5 -22q-28 0 -53.5 9t-50.5 20
t-49 20t-48 9q-33 0 -54.5 -12.5t-44.5 -35.5l-53 55q35 34 69 56t84 22q28 0 54.5 -8.5t52 -19l49 -19.5t44.5 -9q33 0 54.5 12t44.5 35z" />
    <glyph glyph-name="Delta" unicode="&#x394;" 
d="M439 338v245l-324 -324l-52 52l324 324h-247v74h374v-372z" />
    <glyph glyph-name="Delta" unicode="&#x2206;" 
d="M439 338v245l-324 -324l-52 52l324 324h-247v74h374v-372z" />
    <glyph glyph-name="guillemotleft" unicode="&#xab;" 
d="M242 68l-164 230l164 230l53 -38l-111 -191l112 -191zM474 68l-164 230l164 230l53 -38l-111 -191l112 -191z" />
    <glyph glyph-name="guillemotright" unicode="&#xbb;" 
d="M146 68l-54 40l112 191l-111 191l53 38l164 -230zM378 68l-54 40l112 191l-111 191l53 38l164 -230z" />
    <glyph glyph-name="ellipsis" unicode="&#x2026;" 
d="M46 0v119h118v-119h-118zM249 0v119h118v-119h-118zM455 0v119h119v-119h-119z" />
    <glyph glyph-name="uni00A0" unicode="&#xa0;" 
 />
    <glyph glyph-name="Agrave" unicode="&#xc0;" 
d="M308 618l-110 -351h223zM506 0l-59 183h-275l-58 -183h-91l233 709h107l234 -709h-91zM387 753l-193 116l53 73l175 -141z" />
    <glyph glyph-name="Atilde" unicode="&#xc3;" 
d="M308 618l-110 -351h223zM506 0l-59 183h-275l-58 -183h-91l233 709h107l234 -709h-91zM484 826q-19 -19 -35 -30.5t-29 -17t-23.5 -7t-20.5 -1.5q-23 0 -40 5.5t-36 16.5q-12 7 -27.5 14t-30.5 7q-7 0 -12 -0.5t-12 -3.5q-8 -3 -17 -9.5t-22 -19.5l-43 49q20 20 35 31
t28 17t24 7.5t21 1.5q23 0 40 -7t32 -15l29.5 -15.5t32.5 -7.5q10 0 23.5 5t39.5 30z" />
    <glyph glyph-name="Otilde" unicode="&#xd5;" 
d="M489 354q0 28 -0.5 58.5t-5.5 61t-16.5 59t-33.5 50.5q-52 54 -123 54t-123 -54q-22 -22 -33.5 -50.5t-16.5 -59t-5.5 -61t-0.5 -58.5t0.5 -58.5t5.5 -61t16.5 -58.5t33.5 -51q52 -54 123 -54t123 54q22 23 33.5 51t16.5 58.5t5.5 61t0.5 58.5zM581 354q0 -42 -2.5 -82.5
t-11.5 -77.5t-26 -70t-46 -61q-38 -38 -84.5 -57.5t-100.5 -19.5t-100.5 19.5t-84.5 57.5q-29 28 -46 61t-26 70t-11.5 77.5t-2.5 82.5t2.5 82.5t11.5 77.5t26 70t46 61q38 38 84.5 57.5t100.5 19.5t100.5 -19.5t84.5 -57.5q29 -28 46 -61t26 -70t11.5 -77.5t2.5 -82.5z
M484 826q-19 -19 -35 -30.5t-29 -17t-23.5 -7t-20.5 -1.5q-23 0 -40 5.5t-36 16.5q-12 7 -27.5 14t-30.5 7q-7 0 -12 -0.5t-12 -3.5q-8 -3 -17 -9.5t-22 -19.5l-43 49q20 20 35 31t28 17t24 7.5t21 1.5q23 0 40 -7t32 -15l29.5 -15.5t32.5 -7.5q10 0 23.5 5t39.5 30z" />
    <glyph glyph-name="OE" unicode="&#x152;" 
d="M294 625q-73 0 -123 -52q-21 -22 -33 -48.5t-17 -54.5t-6 -57.5t-1 -58.5t1 -58.5t6 -58t17 -55t33 -48.5q49 -50 123 -50v541zM293 0q-108 0 -184 73q-30 29 -47 61.5t-25.5 68.5t-11 74t-2.5 77t2.5 77t11.5 73.5t26 68t47 61.5q77 75 183 75h320v-82h-231v-217h156
v-82h-156v-247h231v-81h-320z" />
    <glyph glyph-name="oe" unicode="&#x153;" 
d="M270 446q-36 -5 -63 -23t-45 -44.5t-26.5 -59t-8.5 -66.5q0 -33 8.5 -64.5t26.5 -57.5t45 -44t63 -23v382zM352 296h146q-1 30 -11 56.5t-29 46.5t-45.5 33t-60.5 14v-150zM352 62q21 0 42 5.5t39 16t32 27.5t20 40h80q-10 -53 -43.5 -88t-79.5 -54q-18 -7 -33.5 -11.5
t-30.5 -7t-31 -3t-36 -0.5q-59 0 -108.5 19.5t-85 54.5t-55.5 84t-20 108q0 57 20 105.5t55.5 84t84 56t105.5 20.5q65 0 115 -17.5t89 -55.5q36 -35 54 -81t18 -109v-30h-231v-164z" />
    <glyph glyph-name="endash" unicode="&#x2013;" 
d="M62 262v79h497v-79h-497z" />
    <glyph glyph-name="emdash" unicode="&#x2014;" 
d="M20 262v79h580v-79h-580z" />
    <glyph glyph-name="quotedblleft" unicode="&#x201c;" 
d="M281 665q-24 -10 -39.5 -23t-24.5 -29t-12 -36.5t-3 -47.5h75v-145h-147v145q0 69 26 117.5t94 76.5zM490 665q-24 -10 -39.5 -23t-24.5 -29t-12.5 -36.5t-3.5 -47.5h75v-145h-147v145q0 69 26 117.5t94 76.5z" />
    <glyph glyph-name="quotedblright" unicode="&#x201d;" 
d="M281 563q0 -69 -26 -117t-94 -77l-31 58q24 11 39.5 23.5t24.5 28.5t12 36.5t3 47.5h-74v146h146v-146zM490 563q0 -69 -26 -117t-94 -77l-32 58q24 11 39.5 23.5t24.5 28.5t12.5 36.5t3.5 47.5h-75v146h147v-146z" />
    <glyph glyph-name="quoteleft" unicode="&#x2018;" 
d="M386 665q-24 -10 -39.5 -23t-24.5 -29t-12 -36.5t-3 -47.5h75v-145h-147v145q0 69 26 117.5t94 76.5z" />
    <glyph glyph-name="quoteright" unicode="&#x2019;" 
d="M386 564q0 -69 -26 -117.5t-94 -77.5l-31 58q24 11 39.5 23.5t24.5 29t12 37t3 47.5h-74v145h146v-145z" />
    <glyph glyph-name="divide" unicode="&#xf7;" 
d="M249 48v122h118v-122h-118zM59 261v78h502v-78h-502zM249 438v122h118v-122h-118z" />
    <glyph glyph-name="lozenge" unicode="&#x25ca;" 
d="M453 348q0 35 -0.5 71t-6 69t-17 61.5t-33.5 49.5q-15 14 -36.5 23t-49.5 9t-49.5 -9t-36.5 -23q-22 -21 -33.5 -49.5t-17 -61.5t-6 -69t-0.5 -71t0.5 -71t6 -69t17 -61.5t33.5 -49.5q15 -14 36.5 -23t49.5 -9t49.5 9t36.5 23q22 21 33.5 49.5t17 61.5t6 69t0.5 71z
M542 348q0 -50 -3 -93.5t-12 -81t-25 -69t-42 -58.5q-26 -26 -62 -42.5t-88 -16.5t-88 16.5t-62 42.5q-26 27 -42 58.5t-25 69t-12 81t-3 93.5t3 94t12 81.5t25 69t42 58.5q26 26 62 42t88 16t88 -16t62 -42q26 -27 42 -58.5t25 -69t12 -81.5t3 -94z" />
    <glyph glyph-name="ydieresis" unicode="&#xff;" 
d="M320 -104q-10 -24 -21.5 -44t-27.5 -34.5t-37 -22.5t-50 -8q-32 0 -58 4t-31 6v73q11 -1 23 -3q11 -2 23.5 -2.5t24.5 -0.5q27 0 44.5 11t28.5 40l34 85l-221 505h105l163 -401l151 401h97zM167 589v102h102v-102h-102zM353 589v102h102v-102h-102z" />
    <glyph glyph-name="Ydieresis" unicode="&#x178;" 
d="M355 288v-288h-90v288l-238 421h100l186 -339l185 339h95zM166 780v102h102v-102h-102zM352 780v102h102v-102h-102z" />
    <glyph glyph-name="fraction" unicode="&#x2044;" 
d="M64 -25l-58 45l518 709l59 -44z" />
    <glyph glyph-name="Euro" unicode="&#x20ac;" 
d="M589 45q-32 -25 -75.5 -41.5t-106.5 -16.5q-61 0 -109.5 21t-86.5 60t-57.5 84.5t-26.5 94.5h-79v61h74q-1 10 -1 20v20v19.5t1 19.5h-74v61h79q7 50 26.5 95.5t57.5 84.5t86.5 60t109.5 21q63 0 106.5 -16.5t75.5 -41.5l-33 -72q-28 22 -64 36t-85 14q-41 0 -76 -15
t-63 -46q-23 -26 -35 -56.5t-17 -63.5h280l-27 -61h-258q-1 -10 -1 -20v-20v-19.5t1 -19.5h230l-27 -61h-198q5 -32 17 -62.5t35 -56.5q28 -31 63 -46t76 -15q49 0 85 14t64 36z" />
    <glyph glyph-name="guilsinglleft" unicode="&#x2039;" 
d="M360 68l-164 230l164 230l53 -38l-111 -191l112 -191z" />
    <glyph glyph-name="guilsinglright" unicode="&#x203a;" 
d="M250 68l-54 40l112 191l-111 191l53 38l164 -230z" />
    <glyph glyph-name="daggerdbl" unicode="&#x2021;" 
d="M351 78v-203h-1h-80h-1v203h-187v73h187v282h-187v73h187v203h1h80h1v-203h187v-73h-187v-282h187v-73h-187z" />
    <glyph glyph-name="periodcentered" unicode="&#xb7;" 
d="M236 232v151h148v-151h-148z" />
    <glyph glyph-name="quotesinglbase" unicode="&#x201a;" 
d="M386 -1q0 -69 -26 -117.5t-94 -76.5l-32 58q24 10 39.5 23t24.5 29t12.5 36.5t3.5 47.5h-75v145h147v-145z" />
    <glyph glyph-name="quotedblbase" unicode="&#x201e;" 
d="M281 -1q0 -69 -25.5 -117.5t-93.5 -76.5l-32 58q24 10 39.5 23t24.5 29t12.5 36.5t3.5 47.5h-75v145h146v-145zM490 -1q0 -69 -26 -117.5t-94 -76.5l-31 58q24 10 39.5 23t24.5 29t12 36.5t3 47.5h-75v145h147v-145z" />
    <glyph glyph-name="perthousand" unicode="&#x2030;" 
d="M335 119q0 30 -19.5 50.5t-49.5 20.5t-48.5 -21t-18.5 -50t18.5 -51t48.5 -22t49.5 21.5t19.5 51.5zM532 119q0 30 -20 50.5t-50 20.5t-48.5 -21t-18.5 -50t18.5 -51t48.5 -22t50 21.5t20 51.5zM592 119q0 -29 -10.5 -52.5t-28.5 -40.5t-41.5 -26.5t-49.5 -9.5
q-29 0 -54 12t-42 34q-18 -22 -44 -34t-56 -12q-26 0 -49 10t-40 27t-27 40.5t-10 51.5q0 26 8.5 49.5t25 40.5t40 27t52.5 10q31 0 56.5 -11.5t42.5 -31.5q16 20 40.5 31.5t56.5 11.5q29 0 52.5 -9.5t41 -27t27 -40.5t9.5 -50zM51 189l-34 49l482 353l34 -49zM242 583
q0 30 -20 50.5t-49 20.5q-30 0 -48.5 -21t-18.5 -50t18.5 -51t48.5 -22q29 0 49 21.5t20 51.5zM302 583q0 -29 -10.5 -52.5t-28 -40.5t-41 -26.5t-49.5 -9.5q-25 0 -48 10t-40 27t-27 40.5t-10 51.5q0 26 8.5 49.5t24.5 40.5t39.5 27t52.5 10q28 0 51.5 -9.5t41 -27
t27 -40.5t9.5 -50z" />
    <glyph glyph-name="Acircumflex" unicode="&#xc2;" 
d="M308 618l-110 -351h223zM506 0l-59 183h-275l-58 -183h-91l233 709h107l234 -709h-91zM423 753l-113 121l-113 -121l-49 44l133 142h58l133 -142z" />
    <glyph glyph-name="Ecircumflex" unicode="&#xca;" 
d="M100 0v709h469v-82h-380v-216h287v-84h-287v-245h380v-82h-469zM452 759l-113 120l-113 -120l-49 44l133 141h58l133 -141z" />
    <glyph glyph-name="Aacute" unicode="&#xc1;" 
d="M308 618l-110 -351h223zM506 0l-59 183h-275l-58 -183h-91l233 709h107l234 -709h-91zM232 752l-36 48l176 142l52 -73z" />
    <glyph glyph-name="Edieresis" unicode="&#xcb;" 
d="M100 0v709h469v-82h-380v-216h287v-84h-287v-245h380v-82h-469zM195 781v102h102v-102h-102zM381 781v102h102v-102h-102z" />
    <glyph glyph-name="Egrave" unicode="&#xc8;" 
d="M100 0v709h469v-82h-380v-216h287v-84h-287v-245h380v-82h-469zM409 758l-192 116l52 73l176 -141z" />
    <glyph glyph-name="Iacute" unicode="&#xcd;" 
d="M108 0v74h157v562h-157v73h404v-73h-157v-562h157v-74h-404zM223 752l-36 48l176 142l52 -73z" />
    <glyph glyph-name="Icircumflex" unicode="&#xce;" 
d="M108 0v74h157v562h-157v73h404v-73h-157v-562h157v-74h-404zM423 754l-113 120l-113 -120l-49 44l133 141h58l133 -141z" />
    <glyph glyph-name="Idieresis" unicode="&#xcf;" 
d="M108 0v74h157v562h-157v73h404v-73h-157v-562h157v-74h-404zM166 780v102h102v-102h-102zM352 780v102h102v-102h-102z" />
    <glyph glyph-name="Igrave" unicode="&#xcc;" 
d="M108 0v74h157v562h-157v73h404v-73h-157v-562h157v-74h-404zM376 753l-192 116l52 73l176 -141z" />
    <glyph glyph-name="Oacute" unicode="&#xd3;" 
d="M489 354q0 28 -0.5 58.5t-5.5 61t-16.5 59t-33.5 50.5q-52 54 -123 54t-123 -54q-22 -22 -33.5 -50.5t-16.5 -59t-5.5 -61t-0.5 -58.5t0.5 -58.5t5.5 -61t16.5 -58.5t33.5 -51q52 -54 123 -54t123 54q22 23 33.5 51t16.5 58.5t5.5 61t0.5 58.5zM581 354q0 -42 -2.5 -82.5
t-11.5 -77.5t-26 -70t-46 -61q-38 -38 -84.5 -57.5t-100.5 -19.5t-100.5 19.5t-84.5 57.5q-29 28 -46 61t-26 70t-11.5 77.5t-2.5 82.5t2.5 82.5t11.5 77.5t26 70t46 61q38 38 84.5 57.5t100.5 19.5t100.5 -19.5t84.5 -57.5q29 -28 46 -61t26 -70t11.5 -77.5t2.5 -82.5z
M234 757l-35 48l175 142l53 -73z" />
    <glyph glyph-name="Ocircumflex" unicode="&#xd4;" 
d="M489 354q0 28 -0.5 58.5t-5.5 61t-16.5 59t-33.5 50.5q-52 54 -123 54t-123 -54q-22 -22 -33.5 -50.5t-16.5 -59t-5.5 -61t-0.5 -58.5t0.5 -58.5t5.5 -61t16.5 -58.5t33.5 -51q52 -54 123 -54t123 54q22 23 33.5 51t16.5 58.5t5.5 61t0.5 58.5zM581 354q0 -42 -2.5 -82.5
t-11.5 -77.5t-26 -70t-46 -61q-38 -38 -84.5 -57.5t-100.5 -19.5t-100.5 19.5t-84.5 57.5q-29 28 -46 61t-26 70t-11.5 77.5t-2.5 82.5t2.5 82.5t11.5 77.5t26 70t46 61q38 38 84.5 57.5t100.5 19.5t100.5 -19.5t84.5 -57.5q29 -28 46 -61t26 -70t11.5 -77.5t2.5 -82.5z
M423 753l-113 121l-113 -121l-49 44l133 142h58l133 -142z" />
    <glyph glyph-name="Ograve" unicode="&#xd2;" 
d="M489 354q0 28 -0.5 58.5t-5.5 61t-16.5 59t-33.5 50.5q-52 54 -123 54t-123 -54q-22 -22 -33.5 -50.5t-16.5 -59t-5.5 -61t-0.5 -58.5t0.5 -58.5t5.5 -61t16.5 -58.5t33.5 -51q52 -54 123 -54t123 54q22 23 33.5 51t16.5 58.5t5.5 61t0.5 58.5zM581 354q0 -42 -2.5 -82.5
t-11.5 -77.5t-26 -70t-46 -61q-38 -38 -84.5 -57.5t-100.5 -19.5t-100.5 19.5t-84.5 57.5q-29 28 -46 61t-26 70t-11.5 77.5t-2.5 82.5t2.5 82.5t11.5 77.5t26 70t46 61q38 38 84.5 57.5t100.5 19.5t100.5 -19.5t84.5 -57.5q29 -28 46 -61t26 -70t11.5 -77.5t2.5 -82.5z
M380 758l-193 116l53 73l175 -141z" />
    <glyph glyph-name="Uacute" unicode="&#xda;" 
d="M559 270q0 -134 -64.5 -208.5t-184.5 -74.5t-184.5 74.5t-64.5 208.5v439h89v-440q0 -42 7.5 -78.5t26 -63t49.5 -41.5t77 -15t77 15t49.5 41.5t26 63t7.5 78.5v440h89v-439zM239 752l-36 48l176 142l52 -73z" />
    <glyph glyph-name="Ucircumflex" unicode="&#xdb;" 
d="M559 270q0 -134 -64.5 -208.5t-184.5 -74.5t-184.5 74.5t-64.5 208.5v439h89v-440q0 -42 7.5 -78.5t26 -63t49.5 -41.5t77 -15t77 15t49.5 41.5t26 63t7.5 78.5v440h89v-439zM423 753l-113 121l-113 -121l-49 44l133 142h58l133 -142z" />
    <glyph glyph-name="Ugrave" unicode="&#xd9;" 
d="M559 270q0 -134 -64.5 -208.5t-184.5 -74.5t-184.5 74.5t-64.5 208.5v439h89v-440q0 -42 7.5 -78.5t26 -63t49.5 -41.5t77 -15t77 15t49.5 41.5t26 63t7.5 78.5v440h89v-439zM379 753l-192 116l52 73l176 -141z" />
    <glyph glyph-name="dotlessi" unicode="&#x131;" 
d="M112 0v73h182v361h-162v72h248v-433h183v-73h-451z" />
    <glyph glyph-name="circumflex" unicode="&#x2c6;" 
d="M423 553l-113 120l-113 -120l-49 43l133 142h58l133 -142z" />
    <glyph glyph-name="tilde" unicode="&#x2dc;" 
d="M484 647q-19 -19 -35 -30.5t-29 -17.5t-23.5 -7.5t-20.5 -1.5q-23 0 -40 5.5t-36 16.5q-12 7 -27.5 14t-30.5 7q-7 0 -12 -0.5t-12 -3.5q-8 -3 -17 -9.5t-22 -19.5l-43 49q20 20 35 31t28 17t24 7.5t21 1.5q23 0 40 -7t32 -15t29.5 -15t32.5 -7q10 0 23.5 4.5t39.5 29.5z
" />
    <glyph glyph-name="macron" unicode="&#xaf;" 
d="M171 606v70h278v-70h-278z" />
    <glyph glyph-name="breve" unicode="&#x2d8;" 
d="M478 718q-3 -33 -14.5 -62t-32 -50.5t-51 -34t-70.5 -12.5t-70.5 12.5t-51 34t-32 50.5t-14.5 62h70q5 -43 28.5 -68t69.5 -25t69.5 25t28.5 68h70z" />
    <glyph glyph-name="dotaccent" unicode="&#x2d9;" 
d="M250 602v120h120v-120h-120z" />
    <glyph glyph-name="ring" unicode="&#x2da;" 
d="M365 670q0 23 -15 39.5t-40 16.5t-40 -16.5t-15 -39.5t15 -39t40 -16t40 16t15 39zM415 670q0 -46 -31 -74t-74 -28t-74 28t-31 74q0 44 28.5 73t76.5 29t76.5 -29t28.5 -73z" />
    <glyph glyph-name="cedilla" unicode="&#xb8;" 
d="M320 -240l-92 41l82 141h82z" />
    <glyph glyph-name="hungarumlaut" unicode="&#x2dd;" 
d="M125 548l-36 49l176 141l52 -73zM338 548l-35 49l175 141l53 -73z" />
    <glyph glyph-name="ogonek" unicode="&#x2db;" 
d="M300 -227l-72 183h82l82 -141z" />
    <glyph glyph-name="caron" unicode="&#x2c7;" 
d="M339 750h-58l-138 146l51 45l116 -124l116 124l51 -45z" />
    <glyph glyph-name="Lslash" unicode="&#x141;" 
d="M157 0v296l-65 -40l-33 52l98 61v340h89v-285l127 79l33 -53l-160 -99v-268h341v-83h-430z" />
    <glyph glyph-name="lslash" unicode="&#x142;" 
d="M104 0v73h178v279l-71 -44l-33 52l104 65v225h-158v72h244v-72v-172l65 41l33 -53l-98 -61v-332h180v-73h-444z" />
    <glyph glyph-name="Scaron" unicode="&#x160;" 
d="M571 195q0 -45 -16.5 -78.5t-42.5 -59.5q-37 -36 -90 -53t-110 -17q-128 0 -201 67q-34 32 -54 75.5t-20 94.5h93q0 -32 13.5 -61.5t35.5 -50.5q24 -23 59.5 -33t73.5 -10q41 0 73.5 9t56.5 32q17 15 26.5 34.5t9.5 48.5q0 42 -27 73t-90 41q-29 5 -54.5 8.5t-54.5 8.5
q-40 6 -74 20t-59 37.5t-39.5 56t-14.5 74.5q0 40 15.5 76.5t44.5 63.5q37 35 82 52.5t101 17.5q52 0 99.5 -16t82.5 -50q64 -61 67 -153h-93q-3 51 -34 87q-20 23 -50.5 36.5t-72.5 13.5q-38 0 -69 -12t-54 -38q-14 -16 -20.5 -34t-6.5 -42t9 -41.5t23.5 -29.5t33 -19
t38.5 -10q30 -4 58 -8.5l57 -9.5q89 -13 142 -64.5t53 -136.5zM338 759h-55l-125 131l45 45l108 -115l107 115l45 -45z" />
    <glyph glyph-name="scaron" unicode="&#x161;" 
d="M528 147q0 -33 -11 -57.5t-29 -43.5q-29 -30 -75 -44.5t-98 -14.5t-95.5 13t-77.5 46q-23 23 -36.5 54t-13.5 63h85q1 -26 13.5 -45t30.5 -33t43 -19.5t55 -5.5q26 0 52.5 6t46.5 23q11 8 18 21.5t7 30.5q0 25 -17 44.5t-58 25.5l-129 19q-58 9 -93 47q-30 35 -30 87
q0 31 12 55.5t29 41.5q25 26 65.5 42t88.5 16q52 0 96.5 -17t70.5 -51q16 -20 24.5 -43t10.5 -53h-85q-1 20 -10 36t-20 26q-16 14 -38.5 22t-48.5 8q-23 0 -46 -5.5t-40 -19.5q-28 -23 -28 -53q0 -29 17.5 -43.5t49.5 -19.5l137 -21q23 -3 45.5 -13t40.5 -27.5t29.5 -41.5
t11.5 -56zM339 553h-50l-112 118l40 40l98 -103l96 103l40 -40z" />
    <glyph glyph-name="Yacute" unicode="&#xdd;" 
d="M355 288v-288h-90v288l-243 421h100l191 -339l190 339h95zM247 749l-29 48l170 123l45 -73z" />
    <glyph glyph-name="yacute" unicode="&#xfd;" 
d="M324 -104q-10 -24 -21.5 -44t-27.5 -34.5t-37 -22.5t-50 -8q-32 0 -55 6t-34 12v73q11 -3 23 -7q11 -3 23.5 -5t24.5 -2q27 0 44.5 11t28.5 40l34 85l-221 505h105l163 -401l151 401h97zM234 550l-32 47l172 129l47 -72z" />
    <glyph glyph-name="Thorn" unicode="&#xde;" 
d="M498 363q0 63 -34 98t-109 35h-152v-272h153q78 0 110 35t32 104zM590 363q0 -102 -59 -161q-29 -29 -71.5 -44t-101.5 -15h-155v-143h-90v710h90v-133h154q63 0 106.5 -16.5t72.5 -47.5q26 -28 40 -65.5t14 -84.5z" />
    <glyph glyph-name="thorn" unicode="&#xfe;" 
d="M471 253q0 35 -7 69.5t-24 62.5t-45.5 45t-70.5 17q-28 0 -49 -9.5t-36 -23.5q-32 -28 -44.5 -70.5t-12.5 -90.5t12.5 -90.5t44.5 -70.5q15 -14 36 -23.5t49 -9.5q42 0 70.5 17t45.5 45t24 62.5t7 69.5zM558 252q0 -63 -19 -118t-55 -92q-25 -26 -62 -40.5t-84 -14.5
q-21 0 -42.5 4.5t-42 13.5t-37.5 22.5t-29 31.5v-276h-85v939h85v-275q10 17 27 30.5t38 22.5t43 14t43 5q45 0 81 -14t61 -37q38 -37 58 -93.5t20 -122.5z" />
    <glyph glyph-name="Zcaron" unicode="&#x17d;" 
d="M70 0v89l390 537h-384v83h485v-90l-391 -536h394v-83h-494zM338 754h-55l-125 131l45 45l108 -115l107 115l45 -45z" />
    <glyph glyph-name="zcaron" unicode="&#x17e;" 
d="M106 0v75l309 356h-309v74h413v-75l-308 -356h311v-74h-416zM331 552h-50l-112 118l40 40l98 -103l96 103l40 -40z" />
    <glyph glyph-name="onehalf" unicode="&#xbd;" 
d="M329 1v55l131 110q14 12 23.5 24t9.5 32q0 10 -7 20q-7 11 -19 16t-27 5q-27 0 -41 -16t-15 -43h-62q2 54 35 84t85 30q46 0 79 -26t33 -74q0 -27 -10.5 -45.5t-29.5 -35.5q-6 -5 -12.5 -11l-13.5 -12l-66 -55h140v-58h-233zM65 152l-34 49l482 353l34 -49zM137 400v236
l-77 -53v69l82 57h57v-309h-62z" />
    <glyph glyph-name="onequarter" unicode="&#xbc;" 
d="M518 64v-63h-60v63h-150v60l122 190h69l-124 -198h83v66h60v-66h50v-52h-50zM65 152l-34 49l482 353l34 -49zM137 400v237l-77 -54v69l83 57h56v-309h-62z" />
    <glyph glyph-name="onesuperior" unicode="&#xb9;" 
d="M297 400v236l-77 -53v69l82 57h57v-309h-62z" />
    <glyph glyph-name="threequarters" unicode="&#xbe;" 
d="M518 63v-63h-60v63h-150v60l121 190h70l-124 -198h83v66h60v-66h50v-52h-50zM95 152l-34 49l482 353l34 -49zM281 479q0 -20 -5.5 -34t-15.5 -25q-18 -20 -43.5 -28t-55.5 -8q-28 0 -53 9.5t-42 29.5q-11 13 -18.5 30t-7.5 39h60q1 -29 18 -43t43 -14q24 0 41.5 9.5
t17.5 33.5q0 20 -13 33.5t-42 13.5h-25v50h24q5 0 10.5 0.5t12.5 2.5q26 7 26 41q0 18 -15 29t-37 11q-20 0 -38.5 -12t-19.5 -41h-60q0 25 7.5 42t21.5 30q17 16 40 23t50 7q29 0 53.5 -8.5t39.5 -27.5q9 -11 14.5 -25t5.5 -32q0 -20 -12 -39.5t-32 -26.5q23 -8 36.5 -28
t13.5 -42z" />
    <glyph glyph-name="threesuperior" unicode="&#xb3;" 
d="M422 479q0 -20 -5.5 -34t-15.5 -25q-18 -20 -43.5 -28t-55.5 -8q-28 0 -53 9.5t-42 29.5q-11 13 -18.5 30t-7.5 39h60q1 -29 18 -43t43 -14q24 0 41.5 9.5t17.5 33.5q0 20 -13 33.5t-42 13.5h-25v50h24q5 0 10.5 0.5t12.5 2.5q26 7 26 41q0 18 -15 29t-37 11
q-20 0 -38.5 -12t-19.5 -41h-60q0 25 7.5 42t21.5 30q17 16 40 23t50 7q29 0 53.5 -8.5t39.5 -27.5q9 -11 14.5 -25t5.5 -32q0 -20 -12 -39.5t-32 -26.5q23 -8 36.5 -28t13.5 -42z" />
    <glyph glyph-name="twosuperior" unicode="&#xb2;" 
d="M197 393v55l131 110q14 12 23 24t9 32q0 11 -6 20q-7 11 -19 16t-27 5q-27 0 -41 -16t-15 -43h-62q2 54 35 84t85 30q46 0 78.5 -26t32.5 -74q0 -27 -10 -45.5t-29 -35.5q-6 -5 -12.5 -11l-13.5 -12l-66 -55h140v-58h-233z" />
    <glyph glyph-name="brokenbar" unicode="&#xa6;" 
d="M272 -50v308h76v-308h-76zM272 450v309h76v-309h-76z" />
    <glyph glyph-name="minus" unicode="&#x2212;" 
d="M53 262v79h515v-79h-515z" />
    <glyph glyph-name="multiply" unicode="&#xd7;" 
d="M532 22l-222 222l-222 -222l-54 54l222 222l-222 222l54 54l221 -222l223 222l54 -54l-223 -222l223 -222z" />
    <glyph glyph-name="Omega" unicode="&#x3a9;" 
d="M378 401q0 22 -14.5 33.5t-47.5 11.5h-42v-93h42q35 0 48.5 12t13.5 36zM429 402q0 -48 -29.5 -71.5t-72.5 -23.5h-52v-99h-51v285h103q48 0 75 -26t27 -65zM527 353q0 45 -17 85t-46.5 70t-69 47.5t-84.5 17.5t-84.5 -17.5t-69 -47.5t-46.5 -70t-17 -85t17 -85t46.5 -70
t69 -47.5t84.5 -17.5t84.5 17.5t69 47.5t46.5 70t17 85zM578 353q0 -56 -21 -105.5t-57.5 -86.5t-85 -58.5t-104.5 -21.5q-55 0 -104 21.5t-85.5 58.5t-57.5 86.5t-21 105.5t21 105.5t57.5 86.5t85.5 58.5t104 21.5q56 0 104.5 -21.5t85 -58.5t57.5 -86.5t21 -105.5z" />
    <glyph glyph-name="Omega" unicode="&#x2126;" 
d="M378 401q0 22 -14.5 33.5t-47.5 11.5h-42v-93h42q35 0 48.5 12t13.5 36zM429 402q0 -48 -29.5 -71.5t-72.5 -23.5h-52v-99h-51v285h103q48 0 75 -26t27 -65zM527 353q0 45 -17 85t-46.5 70t-69 47.5t-84.5 17.5t-84.5 -17.5t-69 -47.5t-46.5 -70t-17 -85t17 -85t46.5 -70
t69 -47.5t84.5 -17.5t84.5 17.5t69 47.5t46.5 70t17 85zM578 353q0 -56 -21 -105.5t-57.5 -86.5t-85 -58.5t-104.5 -21.5q-55 0 -104 21.5t-85.5 58.5t-57.5 86.5t-21 105.5t21 105.5t57.5 86.5t85.5 58.5t104 21.5q56 0 104.5 -21.5t85 -58.5t57.5 -86.5t21 -105.5z" />
    <glyph glyph-name="apple" 
d="M269 302q-28 33 -52 52.5t-50 19.5q-30 0 -52.5 -20.5t-22.5 -51.5t22.5 -51t52.5 -20q26 0 50 19t52 52zM527 302q0 31 -21 51.5t-51 20.5q-26 0 -51 -19.5t-53 -52.5q28 -33 53 -52t51 -19q30 0 51 20t21 51zM599 303q0 -29 -10.5 -54t-29 -44t-44.5 -29.5t-58 -10.5
q-44 0 -77.5 23t-68.5 58q-36 -42 -69.5 -62t-76.5 -20q-31 0 -57.5 11t-46 29.5t-30 44t-10.5 54.5t10.5 54.5t30 44.5t46 30t57.5 11q42 0 75.5 -21t69.5 -63q35 42 69 63t78 21q32 0 58 -11t44.5 -30t29 -44.5t10.5 -54.5z" />
    <glyph glyph-name="currency" unicode="&#xa4;" 
d="M457 254q0 31 -10 58.5t-28.5 47.5t-45.5 32t-61 12q-37 0 -64.5 -11.5t-45.5 -31.5t-27 -47.5t-9 -59.5q0 -29 9.5 -56.5t28 -48.5t46 -33.5t62.5 -12.5t62 12t45.5 32t28 48t9.5 59zM510 -12l-70 78q-28 -20 -59.5 -30.5t-68.5 -10.5t-69 10.5t-61 30.5l-69 -78l-65 64
l80 68q-20 28 -31.5 63t-11.5 71t11.5 71t31.5 63l-80 65l66 66l67 -77q58 40 131 40q71 0 128 -40l69 78l65 -67l-78 -65q20 -28 31 -63t11 -71t-11 -71t-31 -63l78 -68z" />
    <glyph glyph-name="eth" unicode="&#xf0;" 
d="M451 253q0 45 -9.5 87t-36.5 70q-16 16 -38.5 26t-52.5 10t-52 -10t-38 -26q-27 -28 -36.5 -70t-9.5 -87t9.5 -87t36.5 -70q16 -16 38 -26t52 -10t52.5 10t38.5 26q27 28 36.5 70t9.5 87zM536 253q0 -60 -13.5 -113t-54.5 -94q-28 -27 -67 -43t-87 -16t-86.5 16t-66.5 43
q-41 41 -54.5 94t-13.5 113t13.5 113.5t54.5 93.5q28 27 66.5 43t86.5 16q6 0 13 -0.5t14 -1.5l16 -2l-43 73h-120v59h85l-45 75h89l44 -75h98v-59h-63l83 -142q27 -46 39 -91.5t12 -101.5z" />
    <glyph glyph-name="Eth" unicode="&#xd0;" 
d="M488 356q0 34 -1.5 66.5t-6.5 61t-16 53t-29 43.5q-20 21 -52.5 34t-78.5 13h-122v-226h153v-66h-153v-253h122q48 0 81 14t53 36q18 19 28 44t15 54t6 61t1 65zM579 356q0 -72 -9.5 -136.5t-39.5 -112.5q-30 -49 -86 -78t-140 -29h-211v335h-66v66h66v308h211
q84 0 140.5 -30.5t86.5 -79.5q30 -48 39 -109.5t9 -133.5z" />
  </font>
</defs>
</svg>
